<?xml version="1.0" encoding="UTF-8"?>
<svg id="Layer_1" data-name="Layer 1" xmlns="http://www.w3.org/2000/svg" viewBox="0 0 1000 1000">
  <defs>
    <style>
      .cls-1 {
        fill: #cf0;
      }
    </style>
  </defs>
  <rect class="cls-1" x="0" y="-.01" width="1000" height="1000"/>
  <g>
    <g>
      <path d="m445.86,523.54h123.17c-1.9,3.5-3.63,7.31-4.64,9.75s-1.83,4.75-2.56,7.09c-.73,2.35-1.38,4.74-1.96,7.37-.59,2.64-1.11,5.52-1.53,8.89-3.7,0-7.17,0-10.47,0-3.3,0-6.42,0-9.42,0-3,0-5.86,0-8.64,0-2.78,0-5.48,0-8.14,0-2.66,0-5.28,0-7.9,0-2.62,0-5.24,0-7.9,0-2.66,0-5.36,0-8.13,0-2.77,0-5.62,0-8.56,0-2.95,0-6,0-9.17,0-.44,3.51-.62,6.21-.72,8.93-.1,2.72-.13,5.46.04,9.18,3.14,0,6.17,0,9.09,0,2.92,0,5.74,0,8.49,0,2.75,0,5.42,0,8.05,0,2.63,0,5.23,0,7.82,0,2.59,0,5.19,0,7.82,0s5.31,0,8.06,0c2.76,0,5.59,0,8.56,0,2.97,0,6.06,0,9.33,0s6.71,0,10.37,0c.15,3.38.43,6.38.78,9.19.34,2.81.76,5.42,1.25,8.05.49,2.63,1.07,5.28,1.79,8.17.72,2.89,1.59,6.02,2.75,9.62-3.66,0-7.1,0-10.37,0-3.27,0-6.36,0-9.33,0-2.97,0-5.81,0-8.56,0-2.76,0-5.43,0-8.06,0-2.63,0-5.23,0-7.82,0-2.6,0-5.19,0-7.83,0-2.63,0-5.31,0-8.06,0-2.75,0-5.57,0-8.49,0-2.92,0-5.94,0-9.09,0,1.32,4.09,2.47,7.18,3.7,10.28,1.23,3.1,2.54,6.21,4.51,10.36,3.18,0,6.23,0,9.18,0,2.95,0,5.8,0,8.57,0,2.77,0,5.47,0,8.13,0,2.66,0,5.28,0,7.9,0,2.62,0,5.24,0,7.9,0,2.66,0,5.36,0,8.14,0s5.65,0,8.65,0c3,0,6.12,0,9.42,0s6.78,0,10.47,0c1.46,3.08,2.87,5.85,4.25,8.44,1.39,2.59,2.75,5,4.13,7.34,1.38,2.34,2.79,4.62,4.29,6.96,1.5,2.34,3.11,4.74,4.91,7.31,1.8,2.58,3.81,5.33,6.15,8.38h-123.18c-3.15-4.1-6-8.08-8.61-11.95-2.6-3.87-4.96-7.63-7.11-11.28-2.15-3.66-4.08-7.21-5.84-10.68-1.76-3.47-3.34-6.85-4.77-10.15-1.43-3.3-2.71-6.53-3.86-9.71-1.15-3.17-2.16-6.28-3.06-9.35-.9-3.07-1.67-6.09-2.34-9.08-.67-2.99-1.23-5.95-1.68-8.9-.45-2.94-.8-5.87-1.03-8.79s-.37-5.84-.38-8.76c-.01-2.92.09-5.85.32-8.79.23-2.94.59-5.9,1.09-8.87.5-2.97,1.15-5.96,1.97-8.97.82-3.01,1.81-6.03,3.01-9.07,1.19-3.04,3.11-7.28,5.15-11.02Z"/>
      <path d="m591.54,523.54h61.47c1.12,3.2,2.04,7.05,3.57,9.55,1.53,2.5,3.1,4.95,4.7,7.36,1.6,2.41,3.22,4.78,4.88,7.13,1.66,2.35,3.35,4.68,5.09,7,1.74,2.33,3.53,4.66,5.38,7.02,1.85,2.36,3.77,4.75,5.78,7.19,2.01,2.45,4.11,4.95,6.34,7.54,2.23,2.59,4.59,5.28,7.11,8.09,2.53,2.81,5.22,5.75,8.13,8.84,2.91,3.1,6.04,6.35,9.44,9.81-1.17-4.31-2.05-8.32-2.73-12.09-.68-3.77-1.15-7.31-1.46-10.68-.32-3.37-.48-6.57-.51-9.66-.03-3.1.06-6.09.28-9.04.22-2.95.56-5.85,1.03-8.77.48-2.91,1.09-5.83,1.88-8.8.79-2.97,1.75-5.99,2.95-9.08,1.2-3.1,3.13-7.41,5.29-11.42h43.78c-2.02,3.74-3.94,7.98-5.14,11.02-1.19,3.04-2.18,6.07-3,9.08-.81,3.02-1.45,6.02-1.95,9-.49,2.99-.84,5.95-1.05,8.91s-.3,5.9-.28,8.84c.03,2.94.17,5.87.42,8.81.25,2.94.61,5.88,1.07,8.84.46,2.96,1.03,5.93,1.71,8.94.68,3,1.46,6.04,2.37,9.11.9,3.07,1.92,6.19,3.07,9.37,1.15,3.17,2.43,6.41,3.86,9.71,1.43,3.3,3,6.67,4.75,10.13,1.75,3.45,3.67,6.99,5.8,10.62,2.13,3.63,4.46,7.36,7.03,11.18,2.57,3.83,5.39,7.76,8.49,11.79h-48.33c-3.63-2.43-7.08-4.79-10.37-7.07-3.29-2.29-6.43-4.51-9.45-6.67-3.01-2.16-5.9-4.26-8.67-6.32-2.78-2.05-5.45-4.06-8.04-6.03-2.59-1.97-5.09-3.9-7.53-5.81-2.44-1.91-4.81-3.79-7.14-5.66-2.32-1.87-4.6-3.72-6.85-5.57-2.25-1.85-4.46-3.7-6.65-5.56s-4.37-3.73-6.54-5.62c-2.17-1.89-4.33-3.8-6.5-5.74-2.17-1.94-4.34-3.91-6.52-5.93-2.18-2.01-4.38-4.07-6.59-6.18s-4.44-4.26-6.69-6.48c-2.25-2.22-4.52-4.49-6.81-6.84.43,3.64,1.01,7.12,1.68,10.47.68,3.35,1.45,6.56,2.31,9.68.86,3.12,1.8,6.13,2.81,9.09,1.01,2.96,2.1,5.86,3.27,8.74,1.17,2.88,2.43,5.75,3.79,8.65,1.36,2.9,2.82,5.82,4.42,8.82,1.6,3,3.34,6.06,5.26,9.24s4.02,6.48,6.37,9.93c2.35,3.45,4.94,7.06,7.86,10.85h-57.49c-3.13-4.07-5.96-8.03-8.55-11.88-2.59-3.85-4.93-7.59-7.07-11.24-2.14-3.64-4.07-7.19-5.82-10.65-1.75-3.46-3.33-6.84-4.76-10.14-1.43-3.3-2.71-6.53-3.86-9.71-1.15-3.17-2.16-6.29-3.06-9.36-.9-3.07-1.68-6.1-2.35-9.09-.67-3-1.23-5.96-1.69-8.91-.46-2.95-.81-5.88-1.05-8.81-.24-2.93-.38-5.85-.4-8.78-.02-2.93.08-5.87.3-8.81.22-2.95.57-5.91,1.07-8.89s1.14-5.97,1.96-8.98c.82-3.01,1.81-6.04,3-9.08s3.11-7.28,5.14-11.02Z"/>
    </g>
    <g>
      <path d="m473.73,331.11h43.41c3.8,4.94,7.22,9.54,10.31,13.86,3.09,4.32,5.85,8.37,8.32,12.21,2.47,3.84,4.66,7.46,6.59,10.92,1.94,3.46,3.62,6.76,5.09,9.94,1.46,3.18,2.71,6.23,3.75,9.2,1.05,2.97,1.89,5.85,2.56,8.68.67,2.83,1.16,5.59,1.47,8.33.32,2.74.47,5.45.45,8.15-.01,2.71-.19,5.41-.53,8.13-.34,2.72-.84,5.47-1.51,8.26s-1.51,5.63-2.52,8.54-2.19,5.92-3.74,9.3c-1.54,3.37-3.23,6.6-5.06,9.7-1.83,3.11-3.79,6.1-5.88,9.02-2.09,2.92-4.31,5.76-6.64,8.57-2.33,2.81-4.77,5.59-7.29,8.39-2.53,2.8-5.14,5.63-7.82,8.55-2.67,2.92-5.4,5.93-8.14,9.13h-43.41c2.74-3.2,5.47-6.21,8.14-9.13,2.67-2.92,5.29-5.74,7.82-8.55,2.53-2.8,4.97-5.58,7.29-8.39,2.33-2.81,4.54-5.65,6.64-8.57,2.09-2.92,4.05-5.91,5.88-9.02,1.83-3.11,3.52-6.33,5.06-9.7,1.54-3.37,2.72-6.39,3.74-9.3,1.01-2.91,1.85-5.75,2.52-8.54.67-2.79,1.17-5.53,1.51-8.25.34-2.72.52-5.42.53-8.13.02-2.7-.13-5.41-.45-8.15-.32-2.74-.8-5.51-1.47-8.33-.67-2.82-1.51-5.71-2.56-8.67s-2.29-6.02-3.75-9.2c-1.46-3.18-3.15-6.48-5.09-9.94-1.94-3.46-4.12-7.09-6.6-10.92-2.47-3.84-5.23-7.89-8.33-12.21-3.09-4.32-6.51-8.92-10.32-13.87Z"/>
      <path d="m550.09,492.85c-6.36-4.51-6.13-12.79-2.75-20.45,2.84-6.41,11.42-19.14,14.91-26.14,15.51,0,29.82,0,45.39,0-1.2,2.73-7.54,11.85-8.28,14.46-2.65,11.09,11.34,9.16,17.16,8.63,5.29-.85,10.67-2.7,14.96-6.65,2.74-2.38,5.09-5.56,5.91-9.84,1-10.15-23.79-20.78-29.49-23.53-20.07-9.67-44.3-22.85-44.3-49.82,0-22.32,18.42-48.39,47.32-48.39,32.1,0,60.16,4.03,80.68,57.58-16.27,0-31.94.01-47.52.01-2.57-23.42-35.73-20.55-35.73-8.58,0,23.93,64.88,9.79,78.49,59.65,6.03,22.07-23.57,60.21-89.62,60.21-11.46,0-37.28-.3-47.15-7.14Z"/>
      <path d="m682.26,331.11h112.87c2.83,3.68,5.27,6.94,7.47,9.94s4.13,5.72,5.91,8.3c1.78,2.58,3.41,5.01,4.96,7.4,1.54,2.39,3,4.73,4.42,7.12,1.42,2.39,2.79,4.81,4.14,7.36,1.35,2.55,2.67,5.22,3.95,8.08-2.9,0-5.73,0-8.5,0-2.77,0-5.46,0-8.12,0-2.66,0-5.28,0-7.9,0-2.62,0-5.23,0-7.9,0s-5.37,0-8.18,0c-2.81,0-5.72,0-8.8,0-3.08,0-6.32,0-9.79,0-3.47,0-3.88,0-7.9,0,2,4.48,3.18,7.75,4.19,10.99,1.01,3.24,1.86,6.44,2.56,10.68,3.99,0,4.37,0,7.82,0,3.45,0,6.67,0,9.73,0,3.06,0,5.95,0,8.75,0,2.79,0,5.49,0,8.13,0,2.65,0,5.25,0,7.85,0,2.6,0,5.21,0,7.86,0,2.65,0,5.33,0,8.09,0s5.57,0,8.47,0c.63,3.84.88,7.19.92,10.3.04,3.11-.13,5.99-.47,8.89-.34,2.9-.86,5.82-1.64,9.04-.78,3.21-1.83,6.71-3.39,10.83-2.89,0-5.72,0-8.47,0s-5.44,0-8.09,0c-2.65,0-5.25,0-7.86,0-2.6,0-5.21,0-7.85,0-2.65,0-5.34,0-8.14,0-2.79,0-5.69,0-8.75,0-3.06,0-6.28,0-9.73,0-3.45,0-3.84,0-7.82,0-1.18,3.12-2.48,6.09-3.77,8.75s-2.56,5.02-3.99,7.46-3.03,4.97-5.05,7.85c4.02,0,4.42,0,7.9,0,3.48,0,6.72,0,9.8,0,3.08,0,5.99,0,8.8,0s5.52,0,8.18,0c2.66,0,5.28,0,7.9,0,2.62,0,5.24,0,7.9,0,2.66,0,5.36,0,8.13,0,2.77,0,5.6,0,8.5,0-2.24,3.2-4.36,5.94-6.38,8.42-2.02,2.49-3.94,4.72-5.84,6.87-1.89,2.15-3.76,4.2-5.69,6.31-1.92,2.1-3.91,4.25-6.03,6.58-2.12,2.33-4.39,4.84-6.84,7.71h-112.87c2.74-3.2,5.47-6.21,8.14-9.13,2.67-2.92,5.29-5.74,7.82-8.55,2.53-2.8,4.97-5.58,7.29-8.39s4.54-5.65,6.64-8.56c2.09-2.92,4.05-5.91,5.88-9.01,1.83-3.11,3.52-6.33,5.06-9.7,1.54-3.37,2.72-6.39,3.74-9.3,1.01-2.91,1.85-5.75,2.52-8.55.67-2.79,1.17-5.54,1.5-8.27.34-2.73.51-5.43.52-8.14s-.14-5.42-.46-8.16c-.32-2.74-.81-5.51-1.48-8.34-.67-2.83-1.52-5.71-2.57-8.68-1.05-2.97-2.29-6.03-3.76-9.21-1.47-3.18-3.15-6.48-5.09-9.94-1.93-3.46-4.12-7.08-6.59-10.92-2.47-3.83-5.22-7.88-8.31-12.19-3.08-4.31-6.5-8.9-10.29-13.83Z"/>
    </g>
    <path d="m442.05,331.11c-3.5,0-6.64,0-9.58,0-2.94,0-5.66,0-8.32,0h-7.9c-2.66,0-5.38,0-8.32,0s-6.08,0-9.58,0c3.09,4.79,5.81,9.19,8.22,13.31,2.41,4.12,4.51,7.95,6.36,11.57,1.85,3.62,3.44,7.01,4.82,10.25,1.38,3.24,2.55,6.32,3.53,9.29.98,2.97,1.79,5.82,2.43,8.61.64,2.78,1.12,5.5,1.44,8.17.33,2.68.5,5.32.52,7.95.02,2.64-.11,5.27-.4,7.94-.29,2.67-.74,5.36-1.38,8.12-.63,2.76-1.45,5.59-2.47,8.52-1.02,2.93-2.26,5.97-3.75,9.16-1.49,3.19-3.24,6.55-5.28,10.08-2.05,3.53-4.3,6.97-6.78,10.35h0c.66-3.14,1.19-6.33,1.58-9.6.39-3.27.6-6.46.61-9.46,0-3-.17-5.87-.5-8.64-.33-2.77-.82-5.44-1.44-8.04-.62-2.6-1.38-5.14-2.27-7.64-.89-2.5-1.9-4.96-3.04-7.41-1.14-2.45-2.4-4.89-3.79-7.35-1.39-2.46-2.91-4.93-4.58-7.45s-3.47-5.08-5.44-7.72-4.1-5.35-6.42-8.17c-2.32-2.82-4.83-5.75-7.57-8.82s-5.69-6.3-8.92-9.71c-3.23-3.42-6.72-7.03-10.54-10.9-3.82-3.87-7.95-7.99-12.47-12.44h-40.78c2.65,4.8,4.94,9.21,6.93,13.34,1.99,4.13,3.69,7.96,5.14,11.58,1.45,3.62,2.66,7.02,3.67,10.26,1.01,3.24,1.81,6.32,2.44,9.29.63,2.97,1.08,5.82,1.37,8.61.29,2.78.43,5.49.41,8.17-.02,2.67-.19,5.31-.51,7.95-.32,2.63-.8,5.27-1.44,7.93-.64,2.66-1.45,5.36-2.44,8.11-.99,2.76-2.17,5.58-3.57,8.51-1.4,2.93-3.02,5.97-4.9,9.15-1.88,3.19-4.04,6.55-6.51,10.08-2.47,3.53-5.16,6.97-8.1,10.35h0c1.08-3.14,2.01-6.33,2.8-9.6.79-3.27,1.37-6.46,1.75-9.46s.56-5.87.59-8.63c.02-2.76-.12-5.43-.4-8.03-.28-2.6-.71-5.13-1.27-7.63s-1.25-4.95-2.07-7.4c-.82-2.45-1.76-4.89-2.84-7.34-1.07-2.46-2.28-4.93-3.62-7.45-1.35-2.52-2.83-5.08-4.48-7.71-1.64-2.64-3.45-5.35-5.43-8.17-1.99-2.82-4.16-5.75-6.54-8.82-2.39-3.08-4.99-6.3-7.85-9.72-2.86-3.42-5.98-7.04-9.4-10.91-3.43-3.87-7.16-8-11.27-12.46h-8.13c-2.49,0-4.81,0-7.06,0s-4.45,0-6.7,0h-7.06c-2.49,0-5.16,0-8.13,0,3.74,4.86,7.16,9.45,10.28,13.82,3.12,4.36,5.94,8.5,8.49,12.46,2.54,3.96,4.81,7.73,6.82,11.36,2.01,3.63,3.76,7.12,5.28,10.49,1.51,3.38,2.79,6.64,3.83,9.83,1.05,3.18,1.87,6.29,2.49,9.34.61,3.05,1.02,6.04,1.22,9s.21,5.89.03,8.81c-.18,2.92-.55,5.83-1.09,8.74s-1.27,5.84-2.17,8.78-1.96,5.92-3.2,8.93c-1.23,3.01-2.59,5.94-4.01,8.68-1.42,2.74-2.92,5.34-4.48,7.83-1.56,2.48-3.18,4.86-4.85,7.14-1.67,2.28-3.38,4.48-5.13,6.62-1.75,2.14-3.52,4.21-5.32,6.25-1.8,2.04-3.61,4.05-5.44,6.04-1.82,1.99-3.65,3.97-5.47,5.97-1.82,1.99-3.64,4-5.44,6.04-1.8,2.04-3.58,4.12-5.32,6.25-1.75,2.14-3.46,4.33-5.13,6.62-1.67,2.28-3.29,4.65-4.85,7.14-1.56,2.48-3.06,5.08-4.48,7.83-1.42,2.74-2.78,5.64-4.02,8.69-1.23,3.05-2.31,6.2-3.21,9.45-.9,3.25-1.64,6.61-2.2,10.07-.56,3.46-.94,7.02-1.14,10.68-.2,3.66-.2,7.42-.02,11.28.19,3.86.58,7.81,1.18,11.86.6,4.05,1.41,8.19,2.45,12.42,1.04,4.23,2.3,8.55,3.81,12.96,1.51,4.4,3.26,8.89,5.27,13.46,2.01,4.57,4.29,9.21,6.85,13.92,2.56,4.71,5.41,9.49,8.56,14.33,3.16,4.84,6.62,9.74,10.42,14.68h28.95c2.49,0,5.16,0,8.13,0-2.61-4.22-4.93-8.32-7.01-12.31-2.08-3.99-3.91-7.86-5.54-11.63-1.63-3.77-3.06-7.44-4.31-11.01-1.25-3.58-2.33-7.06-3.26-10.47-.93-3.41-1.71-6.74-2.36-10.01s-1.16-6.48-1.56-9.63-.67-6.27-.83-9.35c-.16-3.08-.2-6.13-.13-9.15.07-3.03.26-6.03.56-9.03.31-3,.73-5.99,1.29-8.99.56-2.99,1.24-5.99,2.08-9,.84-3.01,1.82-6.02,2.97-9.05,1.15-3.03,2.48-6.07,4.01-9.12,1.53-3.05,3.28-6.13,5.21-9.17,1.94-3.04,4.04-6.02,6.32-8.95h0c-.7,2.75-1.28,5.53-1.77,8.38-.48,2.84-.85,5.73-1.05,8.6-.2,2.86-.25,5.72-.17,8.56.08,2.84.28,5.68.59,8.5.32,2.82.74,5.64,1.27,8.45.53,2.81,1.16,5.62,1.89,8.43.73,2.81,1.56,5.62,2.48,8.45.92,2.83,1.95,5.67,3.07,8.53,1.12,2.86,2.34,5.75,3.68,8.67,1.33,2.92,2.77,5.87,4.33,8.87,1.56,3,3.24,6.05,5.06,9.15,1.82,3.1,3.77,6.27,5.88,9.5,2.11,3.23,4.38,6.54,6.84,9.92,2.46,3.38,5.09,6.85,7.95,10.41,2.85,3.56,5.93,7.2,9.25,10.95,3.33,3.74,6.9,7.59,10.78,11.53h16.7c2.48,0,4.89,0,7.37,0h16.7c-2.2-4.19-4.12-8.27-5.82-12.24-1.7-3.97-3.16-7.83-4.44-11.59-1.27-3.76-2.36-7.42-3.27-10.99s-1.67-7.05-2.28-10.46c-.61-3.41-1.08-6.74-1.43-10.01-.34-3.27-.56-6.48-.66-9.64-.1-3.16-.08-6.28.05-9.36.13-3.08.38-6.14.74-9.17.36-3.03.84-6.05,1.44-9.06.6-3.01,1.32-6.01,2.18-9.01s1.85-6.01,3-9.02c1.15-3.01,2.45-6.04,3.93-9.07,1.48-3.03,3.14-6.08,5.01-9.13,1.87-3.06,3.98-6.14,6.29-9.18,2.31-3.04,4.79-6.02,7.46-8.95h0c-1.14,2.93-2.14,5.91-3.01,8.95-.87,3.04-1.58,6.12-2.09,9.18-.52,3.06-.86,6.1-1.05,9.14-.19,3.04-.23,6.06-.14,9.07.09,3.02.31,6.02.65,9.03.34,3,.79,6.01,1.36,9.02.57,3.01,1.25,6.03,2.04,9.06.79,3.04,1.7,6.09,2.72,9.18,1.02,3.09,2.16,6.21,3.43,9.37,1.27,3.17,2.66,6.38,4.2,9.65,1.54,3.27,3.22,6.61,5.07,10.01,1.85,3.41,3.86,6.89,6.07,10.46,2.21,3.57,4.61,7.23,7.23,10.98,2.63,3.76,5.49,7.61,8.61,11.57,3.13,3.96,6.53,8.03,10.25,12.21,3.5,0,6.64,0,9.58,0h8.32c2.66,0,5.24,0,7.9,0s5.38,0,8.32,0,6.08,0,9.58,0c-3.74-4.86-7.15-9.7-10.27-14.49s-5.94-9.54-8.48-14.23c-2.54-4.69-4.81-9.32-6.82-13.88-2.01-4.56-3.76-9.05-5.28-13.46-1.51-4.41-2.79-8.74-3.84-12.99-1.05-4.25-1.87-8.41-2.49-12.47-.61-4.07-1.02-8.04-1.23-11.92-.21-3.88-.21-7.66-.03-11.34.18-3.68.55-7.26,1.09-10.74s1.27-6.85,2.17-10.11c.9-3.26,1.96-6.42,3.2-9.47,1.23-3.05,2.59-5.95,4.02-8.69,1.42-2.74,2.92-5.34,4.49-7.83,1.56-2.48,3.18-4.86,4.85-7.14,1.67-2.28,3.38-4.48,5.13-6.62,1.75-2.14,3.52-4.21,5.32-6.25,1.8-2.04,3.61-4.05,5.43-6.04,1.82-1.99,3.65-3.97,5.47-5.97,1.82-1.99,3.64-4,5.44-6.04,1.8-2.04,3.58-4.12,5.32-6.25,1.75-2.14,3.46-4.33,5.13-6.62,1.67-2.28,3.29-4.65,4.85-7.14,1.56-2.48,3.06-5.08,4.49-7.83,1.42-2.74,2.78-5.67,4.02-8.68,1.23-3.01,2.3-5.99,3.19-8.94.89-2.95,1.61-5.88,2.16-8.8s.91-5.83,1.08-8.76c.18-2.93.16-5.86-.05-8.83-.21-2.97-.62-5.97-1.24-9.03s-1.45-6.17-2.5-9.36c-1.05-3.19-2.33-6.46-3.84-9.84-1.51-3.38-3.27-6.87-5.28-10.49-2.01-3.63-4.27-7.4-6.81-11.35-2.54-3.95-5.35-8.07-8.46-12.42-3.11-4.35-6.51-8.91-10.23-13.75Zm-149.95,280.31s-.4-.68-1.13-1.96c-.72-1.28-1.76-3.16-3-5.55-1.23-2.39-2.66-5.28-4.13-8.59-1.47-3.3-2.99-7.02-4.41-11.03-1.42-4.01-2.73-8.33-3.81-12.82-1.07-4.49-1.91-9.17-2.39-13.9-.48-4.73-.61-9.52-.3-14.25.3-4.73,1.09-9.44,2.23-13.87,1.13-4.43,2.56-8.56,4.23-12.42,1.67-3.86,3.57-7.45,5.65-10.82,2.07-3.37,4.31-6.53,6.64-9.51,2.33-2.99,4.75-5.8,7.21-8.48,2.46-2.67,5.22-5.49,8.18-8.48,2.96-2.99,6.1-6.14,9.32-9.51,3.21-3.37,6.48-6.96,9.69-10.82,3.21-3.86,6.35-7.99,9.3-12.42,2.95-4.43,5.68-9.05,7.97-13.33,2.29-4.28,4.2-8.36,5.76-12.25,1.56-3.89,2.76-7.58,3.67-11.06.91-3.48,1.52-6.76,1.91-9.78.4-3.03.58-5.81.64-8.29.06-2.48,0-4.66-.1-6.46-.1-1.8-.23-3.23-.32-4.21-.1-.98-.16-1.5-.16-1.5,0,0,.58.75,1.6,2.13,1.01,1.38,2.46,3.4,4.1,5.9s3.48,5.51,5.26,8.9c1.78,3.39,3.5,7.15,4.91,11.23,1.41,4.08,2.52,8.46,3.11,13.13.59,4.67.68,9.61.11,14.84-.57,5.23-1.85,10.88-3.48,15.91-1.63,5.03-3.66,9.65-5.98,13.91-2.31,4.27-4.91,8.19-7.65,11.86-2.75,3.67-5.64,7.08-8.59,10.29-2.27,2.47-4.8,5.06-7.5,7.79-2.7,2.73-5.57,5.61-8.52,8.66-2.94,3.05-5.96,6.28-8.94,9.73-2.98,3.45-5.93,7.12-8.75,11.04-2.82,3.92-5.55,8.14-7.94,12.45-2.39,4.31-4.45,8.71-6.21,13.1-1.75,4.4-3.19,8.79-4.35,13.09-1.16,4.3-2.04,8.49-2.69,12.5-.65,4-1.07,7.81-1.33,11.34-.26,3.52-.36,6.76-.37,9.63-.01,2.87.06,5.37.16,7.43.09,2.06.21,3.67.29,4.76.08,1.1.13,1.68.13,1.68Z"/>
  </g>
</svg>