<?xml version="1.0" encoding="utf-8"?>
<!-- Generator: Adobe Illustrator 27.7.0, SVG Export Plug-In . SVG Version: 6.00 Build 0)  -->
<svg version="1.1" id="Layer_1" xmlns="http://www.w3.org/2000/svg" xmlns:xlink="http://www.w3.org/1999/xlink" x="0px" y="0px"
	 viewBox="0 0 1626.2 2056.2" style="enable-background:new 0 0 1626.2 2056.2;" xml:space="preserve">
<style type="text/css">
	.st0{fill:none;}
	.st1{fill:#F8B504;}
	.st2{fill:#027D3A;}
	.st3{fill:#F37621;}
	.st4{fill:#FFF4D3;}
	.st5{fill:#FFFFFF;}
	.st6{stroke:#000000;stroke-width:10;stroke-linecap:round;stroke-linejoin:round;stroke-miterlimit:10;}
	.st7{fill:url(#SVGID_1_);}
	.st8{fill:url(#SVGID_00000035511596710186429370000005590762998084731324_);}
	.st9{fill:url(#SVGID_00000072991951482348596690000003288428498397704608_);}
	.st10{fill:url(#SVGID_00000138556337560240318710000014116063080052578693_);}
	.st11{fill:url(#SVGID_00000115494063730743277970000003782364878777793723_);}
	.st12{fill:url(#SVGID_00000072988128267159552260000010047227281212800661_);}
	.st13{fill:url(#SVGID_00000060006010306632897860000001954817073353280391_);}
	.st14{fill:url(#SVGID_00000020392730208581633010000011789016761243223986_);}
	.st15{fill:url(#SVGID_00000089555539203385304720000001146701015879366058_);}
	.st16{fill:url(#SVGID_00000065755734718215014020000016135818960237250713_);}
	.st17{fill:url(#SVGID_00000048466170229815084890000014746674714476462782_);}
	.st18{fill:url(#SVGID_00000016765341506163699450000008977324726016360582_);}
	.st19{fill:none;stroke:#000000;stroke-width:10;stroke-linecap:round;stroke-linejoin:round;stroke-miterlimit:10;}
	.st20{fill:url(#SVGID_00000131361763510948983330000014781417176777777563_);}
	.st21{fill:url(#SVGID_00000050624912141179707050000014328355511097000577_);}
	.st22{fill:url(#SVGID_00000049912190882180714420000004342833149759282074_);}
	.st23{fill:url(#SVGID_00000143583629891932633000000007486561143523703685_);}
	.st24{fill:url(#SVGID_00000009584798379656637920000002356389242246415288_);}
	.st25{fill:url(#SVGID_00000011735336734740149990000016187868414914334132_);}
	.st26{fill:url(#SVGID_00000020360150691073461830000011969929343177252490_);}
	.st27{fill:url(#SVGID_00000115492282990069582600000010051751555690216126_);}
	.st28{fill:url(#SVGID_00000101088853189788517570000002364380249146088598_);}
	.st29{fill:#6DC9E6;}
	.st30{fill:url(#SVGID_00000178900928755553487190000014208940155587418789_);}
	.st31{fill:url(#SVGID_00000018195405302608445280000002796300739966023324_);}
	.st32{fill:url(#SVGID_00000103251780395853139410000000169000700701088658_);}
	.st33{fill:url(#SVGID_00000060743409461204428550000008983081408294206871_);}
	.st34{fill:url(#SVGID_00000097465156000355270540000002653770879417878410_);}
	.st35{fill:url(#SVGID_00000111163483499029273000000012645385519673426067_);}
	.st36{fill:url(#SVGID_00000035515689884663494680000007266660994012238250_);}
	.st37{fill:url(#SVGID_00000084522964065340131780000014997808076365125030_);}
	.st38{fill:url(#SVGID_00000171704475809983759550000016635927139906393240_);}
	.st39{fill:url(#SVGID_00000082338473531896383260000002368527109432982179_);}
	.st40{fill:url(#SVGID_00000100374094106523704240000013407292731972902548_);}
	.st41{fill:url(#SVGID_00000175322949736306100940000011535406401926982301_);}
	.st42{fill:url(#SVGID_00000060745338540651524460000002469009880125511612_);}
	.st43{fill:url(#SVGID_00000121279402943640009030000003333470316651300281_);}
	.st44{fill:url(#SVGID_00000065780892442513080730000014438960854023335610_);}
	.st45{fill:url(#SVGID_00000139985770264072184200000001000684223204049796_);}
	.st46{fill:url(#SVGID_00000007389041412090730330000002922999140266111369_);}
	.st47{fill:url(#SVGID_00000093159534107418801130000017343070174876804769_);}
	.st48{fill:url(#SVGID_00000165210374428083407120000012207399138567192745_);}
	.st49{fill:url(#SVGID_00000006700297288623486820000007121339322303465134_);}
	.st50{fill:url(#SVGID_00000017501970045955184230000004818762364092739502_);}
	.st51{fill:url(#SVGID_00000131337708908160701070000014396474884000081043_);}
	.st52{fill:url(#SVGID_00000136382477148236236500000007584649150086485175_);}
	.st53{fill:url(#SVGID_00000021111226782869628360000014118631344370724482_);}
	.st54{fill:url(#SVGID_00000092452695393890969230000011678113313765981369_);}
	.st55{fill:none;stroke:#000000;stroke-width:10;stroke-miterlimit:10;}
</style>
<pattern  y="28.1" width="71.1" height="71.1" patternUnits="userSpaceOnUse" id="New_Pattern_Swatch_1" viewBox="0 -71.1 71.1 71.1" style="overflow:visible;">
	<g>
		<rect x="0" y="-71.1" class="st0" width="71.1" height="71.1"/>
		<rect x="0" y="-71.1" class="st1" width="71.1" height="71.1"/>
	</g>
</pattern>
<pattern  y="28.1" width="71.1" height="71.1" patternUnits="userSpaceOnUse" id="New_Pattern_Swatch_2" viewBox="0 -71.1 71.1 71.1" style="overflow:visible;">
	<g>
		<rect y="-71.1" class="st0" width="71.1" height="71.1"/>
		<rect x="0" y="-71.1" class="st2" width="71.1" height="71.1"/>
	</g>
</pattern>
<pattern  y="28.1" width="71.1" height="71.1" patternUnits="userSpaceOnUse" id="New_Pattern_Swatch_3" viewBox="0 -71.1 71.1 71.1" style="overflow:visible;">
	<g>
		<rect y="-71.1" class="st0" width="71.1" height="71.1"/>
		<rect x="0" y="-71.1" class="st3" width="71.1" height="71.1"/>
	</g>
</pattern>
<pattern  y="28.1" width="71.1" height="71.1" patternUnits="userSpaceOnUse" id="New_Pattern_Swatch_4" viewBox="0 -71.1 71.1 71.1" style="overflow:visible;">
	<g>
		<rect y="-71.1" class="st0" width="71.1" height="71.1"/>
		<rect x="0" y="-71.1" width="71.1" height="71.1"/>
	</g>
</pattern>
<pattern  y="28.1" width="71.1" height="71.1" patternUnits="userSpaceOnUse" id="New_Pattern_Swatch_5" viewBox="0 -71.1 71.1 71.1" style="overflow:visible;">
	<g>
		<rect y="-71.1" class="st0" width="71.1" height="71.1"/>
		<rect x="0" y="-71.1" class="st4" width="71.1" height="71.1"/>
	</g>
</pattern>
<g>
	<ellipse class="st5" cx="837.1" cy="758.3" rx="88.9" ry="137.3"/>
	<ellipse class="st5" cx="1040.3" cy="758.3" rx="88.9" ry="137.3"/>
	<ellipse class="st6" cx="837.2" cy="1903.9" rx="702.6" ry="122.5"/>
	<pattern  id="SVGID_1_" xlink:href="#New_Pattern_Swatch_4" patternTransform="matrix(1.3458 0 0 1.3458 2482.7698 1770.9778)">
	</pattern>
	<path class="st7" d="M1059.6,1485.2c1.6,58.6-4.8,117.4-19.1,174.3c-2.4,9.4-5,18.9-8.7,27.8c-1.6,3.8-3.4,7.6-5.5,11.2
		c-6.9,12-17.2,22.6-30.3,27.3c-11.1,4-23.2,3.6-34.9,2.2c-13.8-1.7-29-5.9-36.2-17.9c-5.4-9-4.7-19.6-2-30c1.6-6.2,4-12.4,6.3-18.2
		c20-51,31.1-105.4,32.9-160.2c33.1-2.5,65.8-8,97.5-16.7L1059.6,1485.2z"/>
	
		<pattern  id="SVGID_00000075855136762557665830000010490272712253291446_" xlink:href="#New_Pattern_Swatch_5" patternTransform="matrix(1.3458 0 0 1.3458 2482.7698 1770.9778)">
	</pattern>
	<path style="fill:url(#SVGID_00000075855136762557665830000010490272712253291446_);" d="M1004.3,1938.6
		c46.6,8.9,94.6,8.4,141.6,2.3c45.3-5.9,91.2-17.5,127.9-44.5c14.1-10.4,26.6-23.4,36.4-38.1c2.2,10.2,2.2,20.6-2.4,31.3
		c-6,14.1-18,24.7-30.5,33.6c-71.9,51.3-155.6,48.5-237.6,27.5c-15.1-3.9-30.9-8.5-46.2-14.5
		C997.1,1937.2,1000.7,1937.9,1004.3,1938.6z"/>
	
		<pattern  id="SVGID_00000094592175469935893130000010922421876070832564_" xlink:href="#New_Pattern_Swatch_5" patternTransform="matrix(1.3458 0 0 1.3458 2482.7698 1770.9778)">
	</pattern>
	<path style="fill:url(#SVGID_00000094592175469935893130000010922421876070832564_);" d="M922.7,1680.1l0.1,0
		c-2.7,10.4-3.4,21,2,30c7.2,12,22.4,16.2,36.2,17.9c11.7,1.5,23.8,1.8,34.9-2.2c13-4.7,23.4-15.3,30.3-27.3
		c2.1-3.6,3.9-7.3,5.5-11.2h0c7.2,4.9,13.4,11.4,18,18.8c3.3,5.3,5.7,11.2,7.3,17.2l1.6,2.2c-19.8,14.1-38.3,30-56.2,46.5
		c-32.6,4.8-66.4,6.7-94.8-8.7c-15.2-8.2-28.6-23-28.1-40.2c0-0.1,0-0.3,0-0.4c0.5-14.4,10.8-27.1,23.3-34.4
		C909,1684.7,915.7,1682.1,922.7,1680.1z"/>
	
		<pattern  id="SVGID_00000110466591201920588220000004179994369183918775_" xlink:href="#New_Pattern_Swatch_5" patternTransform="matrix(1.3458 0 0 1.3458 2482.7698 1770.9778)">
	</pattern>
	<path style="fill:url(#SVGID_00000110466591201920588220000004179994369183918775_);" d="M960.8,1927.6c-31.2,3.8-63.4-0.9-92-13.8
		c-14.6-6.6-29.6-17.1-32.2-32.9c-1.7-10.4,2.2-20,8.4-28.7c8.8,11.1,19.2,20.9,30.3,29.6c25.5,20.1,54.7,35.1,85.6,45.4
		L960.8,1927.6z"/>
	
		<pattern  id="SVGID_00000121272265613558748380000006396940328226816425_" xlink:href="#New_Pattern_Swatch_3" patternTransform="matrix(1.3458 0 0 1.3458 2482.7698 1770.9778)">
	</pattern>
	<path style="fill:url(#SVGID_00000121272265613558748380000006396940328226816425_);" d="M907.5,1763.4
		c28.5,15.4,62.3,13.5,94.8,8.7c18-16.5,36.5-32.4,56.2-46.5c9.3-6.6,18.9-12.9,28.9-18.5c43.5-24.8,95.2-38.8,144.1-28
		c48.9,10.8,93,50.3,99.3,99.9c3.6,27.9-5,55.8-20.6,79.4v0c-9.8,14.7-22.3,27.7-36.4,38.1c-36.8,27.1-82.7,38.7-127.9,44.5
		c-47,6.1-95,6.5-141.6-2.3c-3.6-0.7-7.2-1.4-10.8-2.2c0,0,0,0,0,0c-11-2.4-21.9-5.5-32.6-9c-30.8-10.3-60.1-25.3-85.6-45.4
		c-11.1-8.7-21.6-18.6-30.3-29.6c-6.2-7.8-11.5-16.2-15.6-25.4c-9.9-22-11.9-48.3-1.4-70.1c9.2-19,28.9-33.2,49.6-34.2l1.8,0.1
		c0,0.1,0,0.3,0,0.4C879,1740.4,892.4,1755.2,907.5,1763.4z"/>
	
		<pattern  id="SVGID_00000106149220457580725360000011489113983635948204_" xlink:href="#New_Pattern_Swatch_4" patternTransform="matrix(1.3458 0 0 1.3458 2482.7698 1770.9778)">
	</pattern>
	<path style="fill:url(#SVGID_00000106149220457580725360000011489113983635948204_);" d="M609.6,1626.4l0.8-0.3
		c0,0,28.5-75.2,79.1-169.7c37.5,17,77.7,29,118.3,36.7c-73.3,122.5-118.3,243.7-118.3,243.7c-12.2-45.6-66.4-72.5-66.4-72.5l-0.1,0
		C619.2,1651.4,614.7,1638.8,609.6,1626.4z"/>
	
		<pattern  id="SVGID_00000044142902636052412170000014825295777037787026_" xlink:href="#New_Pattern_Swatch_3" patternTransform="matrix(1.3458 0 0 1.3458 2482.7698 1770.9778)">
	</pattern>
	<path style="fill:url(#SVGID_00000044142902636052412170000014825295777037787026_);" d="M287.2,1520.2
		c10.9-35,51.3-58.1,84.9-67.3c37.3-10.3,78.7-5.5,113.2,11.7c56.3,28,80.8,76.6,108.9,129.2c5.7,10.6,10.8,21.6,15.4,32.7
		c5.2,12.4,9.6,25,13.5,37.8c8.9,29.6,14.4,60.3,16.6,91.2l1.1-0.1c18.8,16.9,29.7,32.7,35.1,47.4c20.1,54.6-36.6,92.1-49.2,99.7
		c18-43.1-20.2-77.5-43-104.6c-26.8-31.7-48-53.3-95.9-180.5C427,1454,324.1,1478.6,287.2,1520.2z"/>
	
		<pattern  id="SVGID_00000076571932039180363710000007115586723791752621_" xlink:href="#New_Pattern_Swatch_5" patternTransform="matrix(1.3458 0 0 1.3458 2482.7698 1770.9778)">
	</pattern>
	<path style="fill:url(#SVGID_00000076571932039180363710000007115586723791752621_);" d="M623.1,1664.2c0,0,54.2,27,66.4,72.5
		c5.1,19,2.9,41.2-13.6,66.1c-5.4-14.7-16.3-30.6-35.1-47.4l-1.1,0.1C637.5,1724.5,632,1693.8,623.1,1664.2L623.1,1664.2z"/>
	
		<pattern  id="SVGID_00000053523780041921477540000013775177543076317334_" xlink:href="#New_Pattern_Swatch_5" patternTransform="matrix(1.3458 0 0 1.3458 2482.7698 1770.9778)">
	</pattern>
	<path style="fill:url(#SVGID_00000053523780041921477540000013775177543076317334_);" d="M273.7,1547.5c0.8-8.8,5.6-18.5,13.6-27.4
		c36.9-41.5,139.8-66.2,200.5,97.3c48,127.2,69.1,148.8,95.9,180.5c22.8,27,61,61.4,43,104.6c0,0,0,0,0,0
		c-3.1,7.4-7.9,15.2-14.7,23.1h0c24.8-40.4-44.9-81-44.9-81v-27.5c-27.2-30.8-100.6-132.3-123.9-200.3
		c-23.3-67.9-81.9-122.5-141.2-93.9C289.4,1529,280.2,1537.4,273.7,1547.5z"/>
	
		<pattern  id="SVGID_00000163057970150587310160000004825668808709419452_" xlink:href="#New_Pattern_Swatch_2" patternTransform="matrix(1.3458 0 0 1.3458 2482.7698 1770.9778)">
	</pattern>
	<path style="fill:url(#SVGID_00000163057970150587310160000004825668808709419452_);" d="M567,1844.6c0,0,69.7,40.6,44.9,81
		c-1.9,3.1-4.3,6.2-7.4,9.2c-43.2,43.2-161.4-62.7-161.4-62.7L567,1844.6z"/>
	
		<pattern  id="SVGID_00000183937987370618197510000002463285793259496635_" xlink:href="#New_Pattern_Swatch_5" patternTransform="matrix(1.3458 0 0 1.3458 2482.7698 1770.9778)">
	</pattern>
	<polygon style="fill:url(#SVGID_00000183937987370618197510000002463285793259496635_);" points="567,1817.1 567,1844.6 
		443.1,1872.2 443.1,1845.6 	"/>
	
		<pattern  id="SVGID_00000145750128882022416060000006411049575197386170_" xlink:href="#New_Pattern_Swatch_2" patternTransform="matrix(1.3458 0 0 1.3458 2482.7698 1770.9778)">
	</pattern>
	<path style="fill:url(#SVGID_00000145750128882022416060000006411049575197386170_);" d="M301.9,1522.9
		c59.3-28.6,117.9,26,141.2,93.9c23.3,67.9,96.7,169.5,123.9,200.3l-123.9,28.5c0,0-129.9-98.2-157.9-154.9
		c-22.1-44.6-35.8-105.4-11.6-143.2C280.2,1537.4,289.4,1529,301.9,1522.9z"/>
	<polygon class="st19" points="443.1,1872.2 443.1,1845.6 567,1817.1 567,1844.6 	"/>
	<path class="st19" d="M567,1844.6c0,0,69.7,40.6,44.9,81c-1.9,3.1-4.3,6.2-7.4,9.2c-43.2,43.2-161.4-62.7-161.4-62.7"/>
	<path class="st19" d="M443.1,1845.6c0,0-129.9-98.2-157.9-154.9c-22.1-44.6-35.8-105.4-11.6-143.2c6.5-10.1,15.7-18.6,28.2-24.6
		c59.3-28.6,117.9,26,141.2,93.9c23.3,67.9,96.7,169.5,123.9,200.3"/>
	<path class="st19" d="M626.6,1902.5c-3.1,7.4-7.9,15.2-14.7,23.1"/>
	<path class="st19" d="M273.7,1547.5c0.8-8.8,5.6-18.5,13.6-27.4c36.9-41.5,139.8-66.2,200.5,97.3c48,127.2,69.1,148.8,95.9,180.5
		c22.8,27,61,61.4,43,104.6"/>
	<path class="st19" d="M287.2,1520.2c10.9-35,51.3-58.1,84.9-67.3c37.3-10.3,78.7-5.5,113.2,11.7c56.3,28,80.8,76.6,108.9,129.2
		c5.7,10.6,10.8,21.6,15.4,32.7c5.2,12.4,9.6,25,13.5,37.8c8.9,29.6,14.4,60.3,16.6,91.2c0.8,10.8,1.1,21.6,1.1,32.4"/>
	<path class="st19" d="M624.2,1903.9c0,0,0.9-0.5,2.4-1.4c0,0,0,0,0,0c12.6-7.5,69.3-45.1,49.2-99.7c-5.4-14.7-16.3-30.6-35.1-47.4"
		/>
	<path class="st19" d="M623.1,1664.2c0,0,54.2,27,66.4,72.5c5.1,19,2.9,41.2-13.6,66.1"/>
	<path class="st19" d="M610.4,1626.1c0,0,28.5-75.2,79.1-169.7"/>
	<path class="st19" d="M689.5,1736.8c0,0,45-121.2,118.3-243.7"/>
	<path class="st19" d="M993.5,1936.4c-11-2.4-21.9-5.5-32.6-9c-30.8-10.3-60.1-25.3-85.6-45.4c-11.1-8.7-21.6-18.6-30.3-29.6
		c-6.2-7.8-11.5-16.2-15.6-25.4c-9.9-22-11.9-48.3-1.4-70.1c9.2-19,28.9-33.2,49.6-34.2"/>
	<path class="st19" d="M1310.2,1858.4c-9.8,14.7-22.3,27.7-36.4,38.1c-36.8,27.1-82.7,38.7-127.9,44.5c-47,6.1-95,6.5-141.6-2.3
		c-3.6-0.7-7.2-1.4-10.8-2.2"/>
	<path class="st19" d="M971.3,1801.5c10.3-9.8,20.6-19.7,31.1-29.4c18-16.5,36.5-32.4,56.2-46.5c9.3-6.6,18.9-12.9,28.9-18.5
		c43.5-24.8,95.2-38.8,144.1-28c48.9,10.8,93,50.3,99.3,99.9c3.6,27.9-5,55.8-20.6,79.4"/>
	<path class="st19" d="M1031.8,1687.4c7.2,4.9,13.4,11.4,18,18.8c3.3,5.3,5.7,11.2,7.3,17.2"/>
	<path class="st19" d="M1002.4,1772.1c-32.6,4.8-66.4,6.7-94.8-8.7c-15.2-8.2-28.6-23-28.1-40.2c0-0.1,0-0.3,0-0.4
		c0.5-14.4,10.8-27.1,23.3-34.4c6.3-3.7,13.1-6.3,20.1-8.2"/>
	<path class="st19" d="M962.1,1501.9c-1.8,54.7-12.9,109.2-32.9,160.2c-2.3,5.8-4.7,12-6.3,18.2c-2.7,10.4-3.4,21,2,30
		c7.2,12,22.4,16.2,36.2,17.9c11.7,1.5,23.8,1.8,34.9-2.2c13-4.7,23.4-15.3,30.3-27.3c2.1-3.6,3.9-7.3,5.5-11.2
		c3.7-8.9,6.4-18.4,8.7-27.8c14.3-56.9,20.7-115.7,19.1-174.3"/>
	<path class="st19" d="M845,1852.3C845,1852.3,845,1852.3,845,1852.3c-6.2,8.7-10.1,18.4-8.4,28.7c2.6,15.8,17.6,26.3,32.2,32.9
		c28.6,12.9,60.8,17.6,92,13.8"/>
	<path class="st19" d="M1310.2,1858.4L1310.2,1858.4c2.2,10.2,2.2,20.6-2.4,31.3c-6,14.1-18,24.7-30.5,33.6
		c-71.9,51.3-155.6,48.5-237.6,27.5c-15.1-3.9-30.9-8.5-46.2-14.5c0,0,0,0,0,0c-1-0.4-2-0.8-3-1.2"/>
	
		<pattern  id="SVGID_00000114068726425984760450000000978964679526929285_" xlink:href="#New_Pattern_Swatch_4" patternTransform="matrix(1.3402 -0.1233 0.1233 1.3402 2962.76 904.2372)">
	</pattern>
	<path style="fill:url(#SVGID_00000114068726425984760450000000978964679526929285_);" d="M633.6,501.6c-3.2,7.5-6.3,15-9.5,22.4
		l0,0c-16.3-1.6-25.4-4.1-25.7-7.6c0-0.1,0-0.3,0-0.4C599,511.9,611.5,507,633.6,501.6z"/>
	
		<pattern  id="SVGID_00000019662204067063777460000012745967366044499891_" xlink:href="#New_Pattern_Swatch_4" patternTransform="matrix(1.3402 -0.1233 0.1233 1.3402 2962.76 904.2372)">
	</pattern>
	<path style="fill:url(#SVGID_00000019662204067063777460000012745967366044499891_);" d="M1311.2,451.2c0.8,0.6,1.2,1.3,1.2,2
		c0.3,3.7-6.1,7.7-23.8,12.5l-2.3,1.1c-3.5-7.4-7.1-14.8-10.8-22.1C1294.9,446,1307.4,448.1,1311.2,451.2z"/>
	
		<pattern  id="SVGID_00000116921698788925267150000018218393283679029405_" xlink:href="#New_Pattern_Swatch_5" patternTransform="matrix(1.3402 -0.1233 0.1233 1.3402 2962.76 904.2372)">
	</pattern>
	<path style="fill:url(#SVGID_00000116921698788925267150000018218393283679029405_);" d="M1410.9,1104.9c1.2,5.3,6.5,8.6,11.8,7.3
		c5.3-1.2,8.8-6.9,7.2-12.1c-0.9-2.7-1.5-5.5-1.9-8.4c-1.3-8.9-0.6-18.5,4.8-26c1.7-2.2,1.7-5.3-0.3-7.4c-2.1-2.3-5.7-2.4-8-0.3
		c-6.3,5.7-10.3,13.8-12.3,22C1410.3,1088.2,1409.9,1096.6,1410.9,1104.9z M1410.8,1240.4l-0.6,0.5c-14.6,7.2-32.7,5.1-46.9-2.9
		c-10.1-5.7-18.4-14-25.2-23.4c-2.8-3.8-5.3-7.8-7.6-12c-26.4-47.3-23.1-109.6,8.1-153.8c10.9-15.4,24.9-28.3,40.8-38.3
		c16.2-10.1,34.3-17.1,53.1-20.5l-0.1-0.4c-5-10.8-0.8-24.5,8.1-32.4c8.9-8,21.5-10.8,33.4-10c1.2,0.1,2.4,0.2,3.6,0.3
		c10.6,1.2,20.8,4.9,30.8,8.8c13.4,5.3,26.7,11.3,37.4,21c5,4.6,9.3,10.1,12.4,16.1c3.4,6.8,5.2,14.2,4.6,21.8
		c-1,12.1-9.6,23.7-20.9,27.2c6.9,14.4,10.5,30.3,10.1,46.3c-0.1,1.8-0.2,3.6-0.3,5.4l1.4,0.1c8-2.5,17,0.1,23.5,5.4
		c6.5,5.2,10.9,12.8,13.8,20.6c9.5,25.6,4.2,56.1-13.5,76.9c-17.6,20.9-46.8,31.2-73.6,26.1c-0.9-0.2-1.8-0.4-2.8-0.6l0,0.1
		c-5.6,18.1-21.8,32.5-40.4,35.8C1442,1261.8,1422.5,1254.5,1410.8,1240.4z M1374.7,1100.9c5.5,0.5,10.5-3.8,10.6-9.3
		c0-2.9,0.3-5.7,0.8-8.5c1.6-8.8,5.2-17.8,12.6-23.2c2.3-1.5,3.2-4.5,2-7.1c-1.3-2.9-4.7-4.1-7.5-2.8c-7.8,3.5-14.1,10-18.5,17.1
		c-4.4,7.2-7.4,15-9,23.3C1365.2,1095.7,1369.3,1100.4,1374.7,1100.9z"/>
	<path d="M1422.8,1112.2c-5.3,1.2-10.6-2-11.8-7.3c-1.1-8.3-0.6-16.7,1.3-24.9c2-8.2,6-16.2,12.3-22c2.3-2.1,5.9-2,8,0.3
		c1.9,2.1,2,5.2,0.3,7.4c-5.4,7.4-6.1,17.1-4.8,26c0.4,2.8,1,5.7,1.9,8.4C1431.6,1105.3,1428.1,1111,1422.8,1112.2z"/>
	
		<pattern  id="SVGID_00000088836462344946545080000016378073971911348103_" xlink:href="#New_Pattern_Swatch_4" patternTransform="matrix(1.3402 -0.1233 0.1233 1.3402 2962.76 904.2372)">
	</pattern>
	<path style="fill:url(#SVGID_00000088836462344946545080000016378073971911348103_);" d="M1364.1,708.8
		c44.9,13.1,110.3,42.6,150.4,66.6c31.6,18.9,63,43.1,75.4,77.9c9.6,27,6.4,57.2-3.3,84.2c-7.1,19.7-17.4,38.1-28.4,56
		c-3.1-6.1-7.4-11.6-12.4-16.1c-10.6-9.7-24-15.7-37.4-21c-10-3.9-20.2-7.6-30.8-8.8l0.2-1.4c14-18.2,17.5-44.5,7.5-65.4
		c-8.5-17.9-25.3-30.9-43.5-38.8c-18.2-7.9-43.7-10.8-63.3-14.2l0,0c-3.2-39.7-8.3-79.4-15.6-118.8L1364.1,708.8z"/>
	<path d="M1400.6,1052.7c1.2,2.6,0.3,5.6-2,7.1c-7.4,5.4-11,14.4-12.6,23.2c-0.5,2.8-0.8,5.7-0.8,8.5c-0.1,5.5-5.1,9.8-10.6,9.3
		c-5.4-0.4-9.4-5.2-9-10.6c1.5-8.3,4.6-16.1,9-23.3c4.4-7.1,10.7-13.6,18.5-17.1C1395.9,1048.6,1399.3,1049.8,1400.6,1052.7z"/>
	
		<pattern  id="SVGID_00000059999738856305358110000006936597602105332649_" xlink:href="#New_Pattern_Swatch_2" patternTransform="matrix(1.3402 -0.1233 0.1233 1.3402 2962.76 904.2372)">
	</pattern>
	<path style="fill:url(#SVGID_00000059999738856305358110000006936597602105332649_);" d="M1311.2,451.2c-3.8-3.1-16.2-5.2-35.7-6.5
		c-6.8-13.5-14-26.7-21.6-39.6c13.9,0.5,25.2,1.3,33.4,2.5c1.6,0.2,3.3,0.3,4.8,0.1c2.4-0.2,4.6-0.8,6.7-1.8
		c5.2,13.2,9.9,28.2,13.3,44.9L1311.2,451.2z"/>
	
		<pattern  id="SVGID_00000043446877949852677860000011160392451857353886_" xlink:href="#New_Pattern_Swatch_3" patternTransform="matrix(1.3402 -0.1233 0.1233 1.3402 2962.76 904.2372)">
	</pattern>
	<path style="fill:url(#SVGID_00000043446877949852677860000011160392451857353886_);" d="M1281.3,366.3
		c4.5,0.4,23.6,36.8,17.7,39.6l0,0c-6.3-15.9-13.4-29.2-19.9-39.8C1279.8,366.2,1280.5,366.3,1281.3,366.3z"/>
	
		<pattern  id="SVGID_00000023268049379466421540000002109619241697416120_" xlink:href="#New_Pattern_Swatch_3" patternTransform="matrix(1.3402 -0.1233 0.1233 1.3402 2962.76 904.2372)">
	</pattern>
	<path style="fill:url(#SVGID_00000023268049379466421540000002109619241697416120_);" d="M1279,366.1c6.5,10.6,13.6,23.9,19.9,39.8
		c-2.1,1-4.4,1.6-6.7,1.8c-1.6,0.1-3.2,0.1-4.8-0.1c-8.2-1.2-19.5-2.1-33.4-2.5c-8.1-13.9-16.6-27.5-25.5-40.8
		C1248.6,364.4,1265.7,365,1279,366.1z"/>
	
		<pattern  id="SVGID_00000053533685342147797280000008520720854920627381_" xlink:href="#New_Pattern_Swatch_2" patternTransform="matrix(1.3402 -0.1233 0.1233 1.3402 2962.76 904.2372)">
	</pattern>
	<path style="fill:url(#SVGID_00000053533685342147797280000008520720854920627381_);" d="M1257.4,336.9c0,0,9.9,10.1,21.7,29.3
		c-13.4-1.1-30.4-1.7-50.6-1.8c-8.2-12.2-16.7-24.2-25.6-35.9C1236.4,329.3,1256.9,332,1257.4,336.9z"/>
	
		<pattern  id="SVGID_00000060010157578224750270000006753092752150590386_" xlink:href="#New_Pattern_Swatch_2" patternTransform="matrix(1.3402 -0.1233 0.1233 1.3402 2962.76 904.2372)">
	</pattern>
	<path style="fill:url(#SVGID_00000060010157578224750270000006753092752150590386_);" d="M1253.9,405.1c7.5,13,14.7,26.2,21.6,39.6
		c-58.7-3.7-181.3,1-322.4,13.5c-140.9,12.5-262.2,29.4-319.4,43.3c6.1-14.4,12.4-28.8,18.8-43.1c54-11.8,156-26.7,297-39.2
		C1075.1,408.2,1191.1,402.9,1253.9,405.1z"/>
	<path class="st29" d="M1272.4,532.1c1.1,12.3-7.9,23.2-20.3,24.4s-23.2-7.9-24.4-20.3c-1.6-17.1,18.5-44,18.5-44
		S1270.8,515,1272.4,532.1z"/>
	
		<pattern  id="SVGID_00000137124274200862951670000011334903316647119009_" xlink:href="#New_Pattern_Swatch_2" patternTransform="matrix(1.3402 -0.1233 0.1233 1.3402 2951.8237 905.7224)">
	</pattern>
	<path style="fill:url(#SVGID_00000137124274200862951670000011334903316647119009_);" d="M968.3,239.4c-0.1-1.4-0.3-2.7-0.3-4.1
		c1-6.1,1.2-13.4,2-17.4c4.5-20.6,10.7-40.9,18.6-60.5c20.3-50.2,53-96.5,105.1-116.7c26.5-10.3,55.7-13.6,83.8-8.8
		c23.6,4.1,45.8,13.4,69.1,19.1c23.2,5.7,70.2-3,70.2-3s-2.3,15.8-2.9,18.5c-3.4,15.4-8,30.6-13.6,45.3
		c-15.6,40.9-40.2,80-77.1,104.8c-29.9,20.1-67.2,28.9-103.5,26.9c-14.9-0.8-29.6-3.4-43.6-7.8c-16.5-5.2-32.3-12.8-49.2-16.1
		C1004.3,215.5,982.5,221.7,968.3,239.4z"/>
	
		<pattern  id="SVGID_00000159470693047894536100000000812425475336876686_" xlink:href="#New_Pattern_Swatch_3" patternTransform="matrix(1.3402 -0.1233 0.1233 1.3402 2962.76 904.2372)">
	</pattern>
	<path style="fill:url(#SVGID_00000159470693047894536100000000812425475336876686_);" d="M1228.5,364.3
		c8.9,13.3,17.4,26.9,25.5,40.8c-62.8-2.2-178.8,3.1-304.5,14.2c-141,12.5-243,27.4-297,39.2c6.8-15.2,13.7-30.3,20.7-45.3
		c65.1-12,162.7-24.4,272.7-34.1C1058,369.2,1160.6,364,1228.5,364.3z"/>
	<path class="st29" d="M1230.1,610.8c1.9,21.1-13.6,39.7-34.7,41.7c-21.1,1.9-39.7-13.6-41.7-34.7c-2.7-29.3,31.6-75.2,31.6-75.2
		S1227.4,581.5,1230.1,610.8z"/>
	
		<pattern  id="SVGID_00000183943930696912548550000003740708303398717327_" xlink:href="#New_Pattern_Swatch_2" patternTransform="matrix(1.3402 -0.1233 0.1233 1.3402 2962.76 904.2372)">
	</pattern>
	<path style="fill:url(#SVGID_00000183943930696912548550000003740708303398717327_);" d="M930.2,341.2
		c104.9-9.3,210.9-14.3,272.7-12.8c8.9,11.7,17.4,23.6,25.6,35.9c-67.9-0.4-170.4,4.8-282.6,14.8c-110,9.7-207.6,22.1-272.7,34.1
		c0.8-1.7,1.5-3.3,2.3-5c5.5-11.8,11.7-23.5,18.6-35C749.3,362.1,835.7,350.2,930.2,341.2z"/>
	<path class="st5" d="M1120.2,908.4c1-0.1,1.9,0.7,2,1.7c0.1,1-0.7,1.9-1.7,2c-1,0.1-1.9-0.7-2-1.7S1119.1,908.5,1120.2,908.4z"/>
	<path d="M1004.2,560.8c7.4-3.1,19.2-3.5,30.8-1.7c4.8,0.7,9.6,1.8,14,3.1c16.5,4.8,31.9,12.6,40.6,20.1c1.4,1.2,2.7,2.5,2.9,3.7
		c0.2,1.2-1,2.4-3.6,2.8c-4,0.5-8.8-1.2-12.7-2.7c-13.5-4.8-29.7-7.4-45.4-9.5c-6.4-0.8-12.9-1.6-18.8-3.2
		c-5.9-1.6-11.3-4.2-12.4-6.9C998.6,564.3,1000.8,562.2,1004.2,560.8z"/>
	
		<pattern  id="SVGID_00000015314621365220782100000018248656497251842744_" xlink:href="#New_Pattern_Swatch_1" patternTransform="matrix(1.3402 -0.1233 0.1233 1.3402 2951.8237 905.7224)">
	</pattern>
	<path style="fill:url(#SVGID_00000015314621365220782100000018248656497251842744_);" d="M763.3,609.2c4.1-0.2,8.4-2.8,12-4.9
		c12.4-7.2,27.8-12.7,42.9-17.6c6.1-2,12.4-3.9,17.9-6.6c5.6-2.6,10.4-6.2,10.9-9.1c0.5-2.4-2.2-4-5.7-4.8
		c-7.8-1.7-19.5,0.1-30.6,3.9c-4.6,1.6-9.1,3.5-13.2,5.6c-15.3,7.7-29.1,18.2-36.2,27.1c-1.2,1.4-2.2,2.9-2.1,4.2
		C759.3,608.4,760.8,609.4,763.3,609.2z M754.5,901.2c2.6,28.3,39.1,48.1,81.6,44.2c42.4-3.9,74.7-30,72.1-58.4
		c-1.4-15.4-12.8-28.3-29.8-36.2c1.9-1.9,3.7-4.1,5.5-6.4c0,0,0,0,0,0c0.7-0.9,1.4-1.9,2-2.8c0.3-0.5,0.7-1,1-1.5
		c0.5-0.7,0.9-1.4,1.4-2.2c0.9-1.5,1.8-3,2.6-4.6c0.4-0.8,0.8-1.6,1.2-2.4c0.2-0.5,0.5-1.1,0.8-1.6c0.2-0.5,0.4-1,0.7-1.5
		c0.2-0.5,0.4-1,0.6-1.5c0.6-1.5,1.2-3,1.8-4.6c0.2-0.4,0.3-0.9,0.5-1.4c0.8-2.2,1.5-4.5,2.2-6.8c0.3-1.1,0.6-2.1,0.9-3.2
		c0,0,0-0.1,0-0.1c0.3-1.1,0.6-2.2,0.9-3.4c0-0.1,0-0.1,0-0.2c0.3-1.1,0.5-2.1,0.7-3.2c0-0.1,0-0.2,0-0.2c0.2-1.1,0.5-2.2,0.7-3.4
		c0-0.1,0.1-0.3,0.1-0.4c0.2-1,0.4-2,0.5-3.1c0.2-1.4,0.4-2.8,0.6-4.3c0.1-1,0.3-2,0.4-3.1c0-0.4,0.1-0.7,0.1-1.1
		c0.1-1,0.2-1.9,0.3-2.9c0.1-1.2,0.2-2.5,0.3-3.7c0-0.4,0.1-0.9,0.1-1.4c0.1-1,0.1-2,0.2-3c0.1-1.5,0.1-3.1,0.2-4.7c0-1,0-2.1,0-3.1
		c0-1.3,0-2.6,0-3.9c0-0.5,0-1.1,0-1.6c0-1.1-0.1-2.1-0.1-3.2c0-1-0.1-1.9-0.2-2.9c0-0.1,0-0.3,0-0.5c0-0.5-0.1-0.9-0.1-1.4
		c-0.1-1.2-0.2-2.4-0.3-3.6c-0.1-1.2-0.2-2.4-0.4-3.6c0-0.5-0.1-0.9-0.2-1.4c0-0.2,0-0.3-0.1-0.5c-0.1-1-0.2-1.9-0.4-2.9
		c-0.1-1.1-0.3-2.1-0.5-3.1c-0.1-0.5-0.2-1.1-0.3-1.6c-0.2-1.3-0.4-2.6-0.7-3.8c-0.2-1-0.4-2-0.6-3c-0.3-1.5-0.6-3-1-4.6
		c-0.2-1-0.5-2-0.7-2.9c-0.1-0.4-0.2-0.9-0.3-1.3c-0.3-1.2-0.6-2.4-1-3.6c-0.2-0.9-0.5-1.8-0.8-2.8c-0.1-0.4-0.2-0.7-0.3-1.1
		c-0.3-1-0.6-2-0.9-3c-0.5-1.4-0.9-2.7-1.4-4.1c-0.4-1-0.7-2-1.1-2.9c-0.1-0.1-0.1-0.3-0.2-0.4c-0.4-1.1-0.8-2.1-1.3-3.2
		c0-0.1-0.1-0.2-0.1-0.2c-0.4-1-0.9-2-1.3-3c0-0.1-0.1-0.1-0.1-0.2c-0.5-1.1-1-2.1-1.5-3.2c0,0,0-0.1,0-0.1c-0.5-1-1-2-1.5-3
		c-1.1-2.2-2.2-4.2-3.4-6.3c-0.2-0.4-0.5-0.8-0.8-1.3c-0.9-1.4-1.7-2.8-2.6-4.2c-0.6-0.9-1.2-1.8-1.8-2.7c-0.3-0.4-0.6-0.9-0.9-1.3
		c-1.6-2.2-3.3-4.3-5.1-6.3c-0.9-1-1.7-1.9-2.7-2.9c-0.4-0.5-0.9-0.9-1.4-1.4c-0.4-0.4-0.9-0.9-1.4-1.3
		c-10.5-9.8-22.4-14.9-34.6-13.8c-33.9,3.1-56.9,53.2-51.5,111.9c3.1,34,15.1,63.3,31.2,81.5C777.2,852.7,752.2,876.1,754.5,901.2z
		 M953.1,458.3c141.1-12.5,263.7-17.2,322.4-13.5c3.7,7.3,7.3,14.6,10.8,22.1c35.8,75.8,61,158.1,76.6,242.2
		c7.3,39.3,12.5,79.1,15.6,118.8c4.9,61.4,5,122.7,0.6,182.1l0.4,0.6c-15.9,10-30,22.9-40.8,38.3c-31.2,44.3-34.5,106.5-8.1,153.8
		c2.3,4.1,4.8,8.1,7.6,12c-25.4,67.4-63.5,129.3-116.9,177.2c-38.2,34.2-82.6,59.9-130.4,78c-30.7,11.6-62.8,20.1-95.5,25.6
		c-40.9,6.9-82.8,9.3-124,7.5c-10.1-0.4-20.2-1.1-30.4-2.1c-41.1-3.9-82.3-12.2-121.2-25.7c-57.8-19.9-110.8-51.2-152.1-96
		c-66.2-71.9-95.7-171.9-97.7-269.7c-1.6-77.7,12.6-154.7,32.5-230.1c5.1-19.4,10.6-38.7,16.2-57.8c8.4-28.4,17.2-56.6,26.4-84.7
		c23.6-71.9,50-142.9,79.2-212.8c3.1-7.5,6.3-15,9.5-22.4C690.9,487.6,812.2,470.8,953.1,458.3z M999.4,566.6
		c1.1,2.8,6.4,5.3,12.4,6.9c5.9,1.6,12.4,2.4,18.8,3.2c15.7,2,32,4.6,45.4,9.5c3.9,1.4,8.7,3.1,12.7,2.7c2.6-0.3,3.8-1.5,3.6-2.8
		c-0.2-1.2-1.4-2.5-2.9-3.7c-8.7-7.5-24.1-15.3-40.6-20.1c-4.4-1.3-9.2-2.4-14-3.1c-11.5-1.8-23.4-1.5-30.8,1.7
		C1000.8,562.2,998.6,564.3,999.4,566.6z M971.4,755.6c5.3,57.4,35.9,101.8,68.9,100.7c-2.1,8.3-2.9,17.2-2,26.2
		c4,42.5,41.6,73.7,84.1,69.8l2.8-141c-13.9-7.5-26.6-7.8-36.4-6c0.2-0.5,0.3-1.1,0.4-1.6c0.4-1.6,0.9-3.2,1.3-4.8
		c0.3-1.1,0.5-2.2,0.8-3.3c0-0.1,0-0.2,0-0.2c0.3-1.2,0.5-2.4,0.7-3.6c0.2-1.2,0.4-2.4,0.6-3.7c0.2-1.2,0.4-2.5,0.6-3.7
		c0.1-1.1,0.3-2.1,0.4-3.2c0-0.4,0.1-0.8,0.1-1.1c0.1-0.9,0.2-1.8,0.3-2.8c0-0.4,0.1-0.8,0.1-1.1c0.1-1.1,0.2-2.2,0.3-3.3
		c0.1-1.3,0.2-2.6,0.2-4c0-1,0.1-2,0.1-3.1c0-0.4,0-0.9,0-1.3c0-1.1,0-2.2,0-3.3c0-1.2,0-2.5,0-3.7c0-0.5,0-1.1,0-1.6
		c0-1.1-0.1-2.1-0.1-3.2c0-1-0.1-1.9-0.2-2.9c0-0.1,0-0.3,0-0.5c0-0.5-0.1-0.9-0.1-1.4c-0.1-1.2-0.2-2.4-0.3-3.6
		c-0.1-1.2-0.2-2.4-0.4-3.6c0-0.5-0.1-0.9-0.2-1.4c0-0.2,0-0.3-0.1-0.5c-0.1-1-0.2-1.9-0.4-2.9c-0.1-1.1-0.3-2.1-0.5-3.1
		c-0.1-0.5-0.2-1.1-0.3-1.6c-0.2-1.3-0.4-2.6-0.7-3.8c-0.2-1-0.4-2-0.6-3c-0.3-1.5-0.6-3-1-4.6c-0.3-1.2-0.6-2.4-0.9-3.7
		c-0.3-1.1-0.5-2.1-0.8-3.2c-0.1-0.4-0.2-0.8-0.3-1.1c-0.2-0.9-0.5-1.7-0.8-2.6c-0.1-0.4-0.2-0.8-0.3-1.1c-0.3-1-0.7-2.1-1-3.1
		c-0.4-1.2-0.8-2.4-1.2-3.6c0-0.1-0.1-0.2-0.1-0.4c-0.4-1-0.8-2.1-1.2-3.1c-0.4-1.1-0.9-2.3-1.4-3.4c-0.5-1.1-0.9-2.2-1.4-3.3
		c-1-2.2-2-4.3-3-6.4c-0.5-1-1.1-2.1-1.6-3.1c-0.8-1.5-1.7-3-2.5-4.4c-0.9-1.4-1.7-2.8-2.6-4.2c-0.3-0.5-0.6-0.9-0.9-1.3
		c-0.3-0.4-0.6-0.9-0.9-1.3c-0.4-0.6-0.9-1.2-1.3-1.8c-0.4-0.6-0.9-1.2-1.3-1.7c-0.4-0.6-0.9-1.1-1.3-1.7c-0.4-0.5-0.9-1.1-1.4-1.6
		c-0.9-1.1-1.8-2.1-2.8-3c-2.3-2.5-4.7-4.7-7.2-6.6c-9.5-7.6-20.1-11.4-30.8-10.5C989.1,646.8,966,696.9,971.4,755.6z M1252.1,556.5
		c12.3-1.1,21.4-12.1,20.3-24.4c-1.6-17.1-26.2-39.9-26.2-39.9s-20,26.8-18.5,44C1228.8,548.6,1239.8,557.7,1252.1,556.5z
		 M1195.5,652.5c21.1-1.9,36.6-20.6,34.7-41.7c-2.7-29.3-44.8-68.2-44.8-68.2s-34.3,45.9-31.6,75.2
		C1155.7,638.9,1174.4,654.5,1195.5,652.5z"/>
	<path class="st5" d="M1088.8,805.3L1088.8,805.3c0,0.1-0.1,0.3-0.1,0.4C1088.7,805.6,1088.7,805.4,1088.8,805.3z"/>
	<path class="st5" d="M1088.7,805.7c-0.3,1.1-0.7,2.2-1,3.3C1088,807.9,1088.3,806.8,1088.7,805.7z"/>
	<path class="st5" d="M1083.5,819.9c0.2-0.5,0.4-1,0.6-1.5C1083.9,818.9,1083.7,819.4,1083.5,819.9z"/>
	
		<pattern  id="SVGID_00000160879413803861468430000017791938722704839600_" xlink:href="#New_Pattern_Swatch_1" patternTransform="matrix(1.3402 -0.1233 0.1233 1.3402 2951.8237 905.7224)">
	</pattern>
	<path style="fill:url(#SVGID_00000160879413803861468430000017791938722704839600_);" d="M1081.9,823.3c0.3-0.7,0.6-1.3,0.9-2
		C1082.5,822,1082.2,822.6,1081.9,823.3z"/>
	<path class="st5" d="M1081.2,847.1c-0.1-1,0.7-1.9,1.7-2c1-0.1,1.9,0.7,2,1.7s-0.7,1.9-1.7,2
		C1082.2,848.9,1081.3,848.1,1081.2,847.1z"/>
	
		<pattern  id="SVGID_00000044168246360101459480000002550396836564265623_" xlink:href="#New_Pattern_Swatch_1" patternTransform="matrix(1.3402 -0.1233 0.1233 1.3402 2951.8237 905.7224)">
	</pattern>
	<path style="fill:url(#SVGID_00000044168246360101459480000002550396836564265623_);" d="M1080.9,825.2c0.3-0.6,0.7-1.3,1-1.9
		C1081.5,823.9,1081.2,824.6,1080.9,825.2z"/>
	
		<pattern  id="SVGID_00000028324716972391986000000004798808115649459382_" xlink:href="#New_Pattern_Swatch_1" patternTransform="matrix(1.3402 -0.1233 0.1233 1.3402 2951.8237 905.7224)">
	</pattern>
	<path style="fill:url(#SVGID_00000028324716972391986000000004798808115649459382_);" d="M1079.9,827.1c0.3-0.6,0.7-1.3,1-1.9
		C1080.6,825.8,1080.2,826.5,1079.9,827.1z"/>
	
		<pattern  id="SVGID_00000078759809072290716320000016413605952525305009_" xlink:href="#New_Pattern_Swatch_1" patternTransform="matrix(1.3402 -0.1233 0.1233 1.3402 2951.8237 905.7224)">
	</pattern>
	<path style="fill:url(#SVGID_00000078759809072290716320000016413605952525305009_);" d="M1078.9,828.9c0.4-0.6,0.7-1.2,1-1.8
		C1079.6,827.7,1079.2,828.3,1078.9,828.9z"/>
	
		<pattern  id="SVGID_00000055700443300109920300000005618206658445343397_" xlink:href="#New_Pattern_Swatch_1" patternTransform="matrix(1.3402 -0.1233 0.1233 1.3402 2951.8237 905.7224)">
	</pattern>
	<path style="fill:url(#SVGID_00000055700443300109920300000005618206658445343397_);" d="M1076.7,832.4c0.7-1.1,1.5-2.3,2.2-3.5
		C1078.2,830.1,1077.5,831.3,1076.7,832.4z"/>
	
		<pattern  id="SVGID_00000043448119325013554240000013954026991309209762_" xlink:href="#New_Pattern_Swatch_4" patternTransform="matrix(1.3402 -0.1233 0.1233 1.3402 2962.76 904.2372)">
	</pattern>
	<path style="fill:url(#SVGID_00000043448119325013554240000013954026991309209762_);" d="M974.2,45.2c1.7-5.4,13.3-6.5,25.8-2.5
		c12.6,4,21.4,11.6,19.7,16.9c0,0-1.9,1.2-5.1,4c-4.9,1.5-12.6,1-20.8-1.6C981.3,58.1,972.5,50.6,974.2,45.2z"/>
	<path class="st5" d="M1076.4,896.1c-1,0.1-1.9-0.7-2-1.7c-0.1-1,0.7-1.9,1.7-2c1-0.1,1.9,0.7,2,1.7S1077.5,896,1076.4,896.1z"/>
	
		<pattern  id="SVGID_00000019654619776404248920000016317004510924829317_" xlink:href="#New_Pattern_Swatch_1" patternTransform="matrix(1.3402 -0.1233 0.1233 1.3402 2951.8237 905.7224)">
	</pattern>
	<path style="fill:url(#SVGID_00000019654619776404248920000016317004510924829317_);" d="M1122.2,910.1c-0.1-1-1-1.8-2-1.7
		c-1,0.1-1.8,1-1.7,2s1,1.8,2,1.7C1121.5,912.1,1122.3,911.2,1122.2,910.1z M1076.4,896.1c1-0.1,1.8-1,1.7-2s-1-1.8-2-1.7
		c-1,0.1-1.8,1-1.7,2C1074.5,895.4,1075.4,896.2,1076.4,896.1z M1040.3,856.3c0.7,0,1.5-0.1,2.2-0.1c13.5-1.2,25.3-10,34.2-23.7
		c0.7-1.1,1.5-2.3,2.2-3.5c0.4-0.6,0.7-1.2,1-1.8c0.3-0.6,0.7-1.3,1-1.9c0.3-0.6,0.7-1.3,1-1.9c0.3-0.7,0.6-1.3,0.9-2
		c0.2-0.5,0.4-1,0.7-1.5c0.2-0.5,0.4-1,0.6-1.5c0.6-1.5,1.3-3,1.8-4.6c0.6-1.6,1.2-3.1,1.7-4.8c0.4-1.1,0.7-2.2,1-3.3
		c0.1-0.1,0.1-0.3,0.1-0.4c9.8-1.8,22.5-1.4,36.4,6l-2.8,141c-42.5,4-80.2-27.3-84.1-69.8C1037.4,873.4,1038.1,864.6,1040.3,856.3z
		 M1084.9,846.7c-0.1-1-1-1.8-2-1.7c-1,0.1-1.8,1-1.7,2c0.1,1,1,1.8,2,1.7C1084.2,848.7,1085,847.8,1084.9,846.7z"/>
	<path d="M940.2,193.7c-4.2-39-1.9-96.8,34-148.5c-1.7,5.4,7.1,13,19.7,16.9c8.1,2.6,15.9,3,20.8,1.6c-14.7,13.1-55.5,60-46.7,171.6
		c-0.5,3.2-1.3,6.1-2.5,7.9l-0.4,1.2c-5.1-1.9-10.2-3.5-15.4-4.8C949.6,239.7,943.2,221.4,940.2,193.7z"/>
	<path d="M1049.3,834.9c-17-17.9-29.8-48.2-33-83.4c-0.2-2.6-0.4-5.2-0.6-7.7l38.9-0.4l-34.4-48.3c5.1-20.1,14.1-36.3,25.8-45.9
		c2.6,1.5,5.1,3.2,7.6,5.1c2.5,2,4.9,4.2,7.2,6.6c0.9,1,1.8,2,2.8,3c0.5,0.5,0.9,1.1,1.4,1.6c0.4,0.6,0.9,1.1,1.3,1.7
		c0.4,0.6,0.9,1.1,1.3,1.7c0.4,0.6,0.9,1.2,1.3,1.8c0.3,0.4,0.6,0.9,0.9,1.3c0.3,0.4,0.6,0.9,0.9,1.3c0.9,1.4,1.8,2.7,2.6,4.2
		c0.9,1.4,1.7,2.9,2.5,4.4c0.5,1,1.1,2,1.6,3.1c1.1,2.1,2.1,4.2,3,6.4c0.5,1.1,1,2.2,1.4,3.3c0.5,1.1,0.9,2.3,1.4,3.4
		c0.4,1,0.8,2.1,1.2,3.1c0,0.1,0.1,0.2,0.1,0.4c0.4,1.2,0.8,2.4,1.2,3.6c0.3,1,0.7,2.1,1,3.1c0.1,0.4,0.2,0.8,0.3,1.1
		c0.3,0.9,0.5,1.7,0.8,2.6c0.1,0.4,0.2,0.8,0.3,1.1c0.3,1,0.6,2.1,0.8,3.2c0.3,1.2,0.6,2.4,0.9,3.7c0.4,1.5,0.7,3,1,4.6
		c0.2,1,0.4,2,0.6,3c0.2,1.3,0.5,2.5,0.7,3.8c0.1,0.5,0.2,1.1,0.3,1.6c0.2,1,0.3,2.1,0.5,3.1c0.1,0.9,0.3,1.9,0.4,2.9
		c0,0.1,0,0.3,0.1,0.5c0.1,0.5,0.1,0.9,0.2,1.4c0.1,1.2,0.3,2.4,0.4,3.6c0.1,1.2,0.2,2.4,0.3,3.6c0,0.5,0.1,0.9,0.1,1.4
		c0,0.2,0,0.3,0,0.5c0.1,1,0.1,1.9,0.2,2.9c0.1,1.1,0.1,2.1,0.1,3.2c0,0.6,0,1.1,0,1.6c0,1.3,0,2.5,0,3.7c0,1.1,0,2.2,0,3.3
		c0,0.4,0,0.9,0,1.3c0,1-0.1,2.1-0.1,3.1c-0.1,1.3-0.1,2.6-0.2,4c-0.1,1.1-0.1,2.2-0.3,3.3c0,0.4-0.1,0.8-0.1,1.1
		c-0.1,0.9-0.2,1.8-0.3,2.8c0,0.4-0.1,0.8-0.1,1.1c-0.1,1.1-0.3,2.2-0.4,3.2c-0.2,1.3-0.4,2.5-0.6,3.7c-0.2,1.2-0.4,2.5-0.6,3.7
		c-0.2,1.2-0.5,2.4-0.7,3.6c0,0.1,0,0.2,0,0.2c-0.2,1.1-0.5,2.2-0.8,3.3c-0.4,1.6-0.8,3.3-1.3,4.8c-0.1,0.5-0.3,1.1-0.4,1.6l0,0
		c-11.8,2.2-19.2,7.6-19.2,7.6C1061.4,818.9,1054.6,826.3,1049.3,834.9z"/>
	
		<pattern  id="SVGID_00000166652078892349489250000015808197484402850988_" xlink:href="#New_Pattern_Swatch_1" patternTransform="matrix(1.3402 -0.1233 0.1233 1.3402 2951.8237 905.7224)">
	</pattern>
	<path style="fill:url(#SVGID_00000166652078892349489250000015808197484402850988_);" d="M1064.3,846.7
		c-5.2-2.9-10.2-6.9-14.9-11.8c5.2-8.5,12.1-16,20.2-21.9c0,0,7.4-5.4,19.2-7.6c0,0.1-0.1,0.3-0.1,0.4c-0.3,1.1-0.7,2.2-1,3.3
		c-0.5,1.6-1.1,3.2-1.7,4.8c-0.6,1.6-1.2,3.1-1.8,4.6c-0.2,0.5-0.4,1-0.6,1.5c-0.2,0.5-0.5,1-0.7,1.5c-0.3,0.7-0.6,1.3-0.9,2
		c-0.3,0.7-0.6,1.3-1,1.9c-0.3,0.6-0.7,1.3-1,1.9c-0.3,0.6-0.7,1.2-1,1.8c-0.7,1.2-1.4,2.4-2.2,3.5
		C1073,838.1,1068.8,842.9,1064.3,846.7z"/>
	
		<pattern  id="SVGID_00000080890263266719346470000007410499674904788115_" xlink:href="#New_Pattern_Swatch_1" patternTransform="matrix(1.3402 -0.1233 0.1233 1.3402 2951.8237 905.7224)">
	</pattern>
	<path style="fill:url(#SVGID_00000080890263266719346470000007410499674904788115_);" d="M1076.7,832.4
		c-8.9,13.8-20.7,22.5-34.2,23.7c-0.7,0.1-1.5,0.1-2.2,0.1c1.9-7.6,5-14.9,9.1-21.4c4.7,4.9,9.7,8.9,14.9,11.8
		C1068.8,842.9,1073,838.1,1076.7,832.4z"/>
	<path class="st5" d="M965.4,243.3c1.2-1.8,2-4.7,2.5-7.9c0.1,1.3,0.2,2.7,0.3,4.1C967.3,240.6,966.3,241.9,965.4,243.3z"/>
	
		<pattern  id="SVGID_00000010992289833037950190000006986459543174783627_" xlink:href="#New_Pattern_Swatch_1" patternTransform="matrix(1.3402 -0.1233 0.1233 1.3402 2951.8237 905.7224)">
	</pattern>
	<path style="fill:url(#SVGID_00000010992289833037950190000006986459543174783627_);" d="M694,373.2
		c52.6-88.4,143-165.8,246.1-179.5l0,0c3,27.7,9.3,46.1,9.3,46.1c5.2,1.3,10.3,2.9,15.4,4.8l0.4-1.2c0.9-1.3,1.9-2.6,2.9-3.9
		c14.2-17.7,36-24,58.5-19.7c17,3.3,32.7,10.9,49.2,16.1c14,4.4,28.7,7,43.6,7.8c24.7,18.2,47,40.2,66.6,63.9
		c5.7,6.9,11.2,13.8,16.6,20.9c-61.8-1.5-167.7,3.5-272.7,12.8C835.7,350.2,749.3,362.1,694,373.2z"/>
	<path d="M880.7,681.2c0.9,1.4,1.8,2.7,2.6,4.2c0.3,0.4,0.5,0.8,0.8,1.3c1.2,2,2.3,4.1,3.4,6.3c0.5,1,1,2,1.5,3c0,0,0,0.1,0,0.1
		c0.5,1,1,2.1,1.5,3.2c0,0.1,0.1,0.1,0.1,0.2c0.4,1,0.9,2,1.3,3c0,0.1,0.1,0.1,0.1,0.2c0.4,1,0.9,2.1,1.3,3.2
		c0.1,0.1,0.1,0.3,0.2,0.4c0.4,1,0.7,1.9,1.1,2.9c0.5,1.3,1,2.7,1.4,4.1c0.3,1,0.6,2,0.9,3c0.1,0.4,0.2,0.7,0.3,1.1
		c0.3,0.9,0.5,1.8,0.8,2.8c0.4,1.2,0.7,2.4,1,3.6c0.1,0.4,0.2,0.9,0.3,1.3c0.3,1,0.5,2,0.7,2.9c0.4,1.5,0.7,3,1,4.6
		c0.2,1,0.4,2,0.6,3c0.2,1.3,0.5,2.5,0.7,3.8c0.1,0.5,0.2,1.1,0.3,1.6c0.2,1,0.3,2.1,0.5,3.1c0.1,0.9,0.3,1.9,0.4,2.9
		c0,0.1,0,0.3,0.1,0.5c0.1,0.5,0.1,0.9,0.2,1.4c0.1,1.2,0.3,2.4,0.4,3.6c0.1,1.2,0.2,2.4,0.3,3.6c0,0.5,0.1,0.9,0.1,1.4
		c0,0.2,0,0.3,0,0.5c0.1,1,0.1,1.9,0.2,2.9c0.1,1.1,0.1,2.1,0.1,3.2c0,0.6,0,1.1,0,1.6c0,1.3,0,2.6,0,3.9c0,1,0,2.1,0,3.1
		c0,1.6-0.1,3.1-0.2,4.7c0,1-0.1,2-0.2,3c0,0.5-0.1,0.9-0.1,1.4c-0.1,1.3-0.2,2.5-0.3,3.7c-0.1,1-0.2,1.9-0.3,2.9
		c0,0.4-0.1,0.7-0.1,1.1c-0.1,1-0.2,2.1-0.4,3.1c-0.2,1.4-0.4,2.8-0.6,4.3c-0.2,1-0.4,2.1-0.5,3.1c0,0.2-0.1,0.3-0.1,0.4
		c-0.2,1.1-0.4,2.3-0.7,3.4c0,0.1,0,0.2,0,0.2c-0.2,1.1-0.5,2.1-0.7,3.2c0,0.1,0,0.1,0,0.2c-0.3,1.1-0.6,2.3-0.9,3.4
		c0,0,0,0.1,0,0.1c-0.3,1.1-0.6,2.2-0.9,3.2c-0.7,2.3-1.4,4.6-2.2,6.8c-0.2,0.5-0.3,0.9-0.5,1.4c-0.6,1.6-1.2,3.1-1.8,4.6
		c-0.2,0.5-0.4,1-0.6,1.5c-0.2,0.5-0.4,1-0.7,1.5c-0.2,0.5-0.5,1.1-0.8,1.6c-0.4,0.8-0.8,1.6-1.2,2.4c-0.8,1.6-1.7,3.1-2.6,4.6
		c-0.4,0.7-0.9,1.5-1.4,2.2c-0.3,0.5-0.7,1-1,1.5c-0.7,1-1.3,1.9-2,2.8c0,0,0,0,0,0c-1.7,2.3-3.6,4.4-5.5,6.4
		c-5.2-2.4-10.8-4.3-16.9-5.8c-18.1-17.6-31.8-48.9-35.2-85.7c-0.2-2.6-0.4-5.2-0.5-7.8l38.9-0.4l-34.4-48.3
		c5.1-20.1,14.1-36.3,25.8-45.9c4,2.2,7.8,5.1,11.5,8.4c0.5,0.4,0.9,0.9,1.4,1.3c0.5,0.4,0.9,0.9,1.4,1.4c0.9,0.9,1.8,1.9,2.7,2.9
		c1.7,2,3.4,4.1,5.1,6.3c0.3,0.4,0.6,0.8,0.9,1.3C879.5,679.4,880.1,680.3,880.7,681.2z"/>
	
		<pattern  id="SVGID_00000129889743501181909820000000362418936509606537_" xlink:href="#New_Pattern_Swatch_3" patternTransform="matrix(1.3402 -0.1233 0.1233 1.3402 2951.8237 905.7224)">
	</pattern>
	<path style="fill:url(#SVGID_00000129889743501181909820000000362418936509606537_);" d="M878.3,850.9c17,7.9,28.4,20.8,29.8,36.2
		c2.6,28.3-29.7,54.5-72.1,58.4c-42.4,3.9-78.9-15.9-81.6-44.2c-2.3-25.1,22.8-48.5,58-56.2c11.7,13.2,25.6,20.4,39.9,19.1
		c8.8-0.8,16.9-4.8,23.9-11.3c0.4-0.3,0.7-0.6,1-1l0,0C877.7,851.5,878,851.2,878.3,850.9z"/>
	
		<pattern  id="SVGID_00000142141106710115341850000006668591839189181882_" xlink:href="#New_Pattern_Swatch_3" patternTransform="matrix(1.3402 -0.1233 0.1233 1.3402 2951.8237 905.7224)">
	</pattern>
	<path style="fill:url(#SVGID_00000142141106710115341850000006668591839189181882_);" d="M878.3,850.8L878.3,850.8
		c-0.3,0.4-0.7,0.7-1,1C877.7,851.5,878,851.2,878.3,850.8z"/>
	
		<pattern  id="SVGID_00000119106353083205042420000005642999183586426011_" xlink:href="#New_Pattern_Swatch_3" patternTransform="matrix(1.3402 -0.1233 0.1233 1.3402 2951.8237 905.7224)">
	</pattern>
	<path style="fill:url(#SVGID_00000119106353083205042420000005642999183586426011_);" d="M877.3,851.9c-0.3,0.4-0.7,0.7-1,1
		C876.6,852.5,877,852.2,877.3,851.9z"/>
	<path d="M775.4,604.3c-3.6,2.1-8,4.7-12,4.9c-2.6,0.2-4-0.8-4.1-2c-0.1-1.2,1-2.7,2.1-4.2c7.2-9,20.9-19.4,36.2-27.1
		c4.1-2.1,8.6-4,13.2-5.6c11-3.9,22.7-5.7,30.6-3.9c3.5,0.8,6.1,2.4,5.7,4.8c-0.5,2.9-5.3,6.4-10.9,9.1c-5.5,2.6-11.8,4.6-17.9,6.6
		C803.2,591.6,787.7,597.1,775.4,604.3z"/>
	<path class="st5" d="M874.2,854.7c-4.4-2.4-8.7-5.7-12.7-9.6c6,1.4,11.7,3.4,16.9,5.8c-0.3,0.3-0.7,0.7-1,1l0,0
		c-0.3,0.3-0.7,0.7-1,1C875.6,853.5,874.9,854.1,874.2,854.7z"/>
	
		<pattern  id="SVGID_00000008837428444573920980000006439044976239963805_" xlink:href="#New_Pattern_Swatch_3" patternTransform="matrix(1.3402 -0.1233 0.1233 1.3402 2951.8237 905.7224)">
	</pattern>
	<path style="fill:url(#SVGID_00000008837428444573920980000006439044976239963805_);" d="M826.6,842.8c12.4-1.1,24.2-0.3,34.9,2.3
		c4,3.9,8.3,7.2,12.7,9.6c0.7-0.6,1.4-1.2,2.1-1.8c-7,6.5-15.1,10.5-23.9,11.3c-14.3,1.3-28.2-5.9-39.9-19.1
		C817,844,821.7,843.3,826.6,842.8z"/>
	
		<pattern  id="SVGID_00000029004365934922476660000017155854072354695092_" xlink:href="#New_Pattern_Swatch_2" patternTransform="matrix(1.3402 -0.1233 0.1233 1.3402 2962.76 904.2372)">
	</pattern>
	<path style="fill:url(#SVGID_00000029004365934922476660000017155854072354695092_);" d="M694,373.2c-6.9,11.5-13.1,23.2-18.6,35
		c-0.8,1.7-1.6,3.3-2.3,5c-23.6,4.3-42.9,8.6-57,12.8c7.9-20.2,15.5-31.5,15.5-31.5C631.1,388.6,654.7,381.1,694,373.2z"/>
	
		<pattern  id="SVGID_00000075851189735886034260000017278799117646344073_" xlink:href="#New_Pattern_Swatch_3" patternTransform="matrix(1.3402 -0.1233 0.1233 1.3402 2962.76 904.2372)">
	</pattern>
	<path style="fill:url(#SVGID_00000075851189735886034260000017278799117646344073_);" d="M673.1,413.2c-7,15-13.9,30.2-20.7,45.3
		c-13.9,3.1-24.7,5.9-32,8.4c-5.6,1.9-11.4,1.2-16.2-1.3c3.3-15.5,7.6-28.8,11.9-39.6l0,0C630.2,421.8,649.6,417.5,673.1,413.2z"/>
	
		<pattern  id="SVGID_00000070106925220024401580000003496163438540435597_" xlink:href="#New_Pattern_Swatch_2" patternTransform="matrix(1.3402 -0.1233 0.1233 1.3402 2962.76 904.2372)">
	</pattern>
	<path style="fill:url(#SVGID_00000070106925220024401580000003496163438540435597_);" d="M652.4,458.5
		c-6.4,14.3-12.6,28.7-18.8,43.1c-22.1,5.4-34.7,10.4-35.2,14.5c0.3-18.6,2.5-35.5,5.8-50.4c4.8,2.6,10.6,3.2,16.2,1.3
		C627.8,464.4,638.5,461.6,652.4,458.5z"/>
	
		<pattern  id="SVGID_00000163052290986648328760000007766666052614812073_" xlink:href="#New_Pattern_Swatch_3" patternTransform="matrix(1.3402 -0.1233 0.1233 1.3402 2962.76 904.2372)">
	</pattern>
	<path style="fill:url(#SVGID_00000163052290986648328760000007766666052614812073_);" d="M616.1,426c-4.2,10.8-8.6,24.1-11.9,39.6
		c-0.3-0.2-0.5-0.3-0.8-0.4C599.5,462.8,612.9,426.9,616.1,426z"/>
	
		<pattern  id="SVGID_00000159452311048969285390000013945793282579820194_" xlink:href="#New_Pattern_Swatch_4" patternTransform="matrix(1.3402 -0.1233 0.1233 1.3402 2962.76 904.2372)">
	</pattern>
	<path style="fill:url(#SVGID_00000159452311048969285390000013945793282579820194_);" d="M342.1,811.6
		c74.2,8.4,152.1-19.9,202.8-74.8c-9.2,28.1-18,56.3-26.4,84.7c-5.7,19.2-11.1,38.4-16.2,57.8c-52.7,25.1-113.9,32.4-171,20
		c6-7,10.1-15.8,13.1-24.6c5.7-16.5,8.4-34.7,3.5-50.8C346.6,819.5,344.7,815.4,342.1,811.6z"/>
	
		<pattern  id="SVGID_00000121967471515747526910000001636571712915307933_" xlink:href="#New_Pattern_Swatch_5" patternTransform="matrix(1.3402 -0.1233 0.1233 1.3402 2962.76 904.2372)">
	</pattern>
	<path style="fill:url(#SVGID_00000121967471515747526910000001636571712915307933_);" d="M133.2,1039.1
		c-13.9,3.9-30.9-0.6-37.5-13.4c-2.1-4.1-3-8.4-3-12.9c0-8.2,2.9-16.8,6.5-24.4c12.6-26.3,33.5-48.5,58.8-62.9
		c-7.9-3.6-15.1-8.7-20.9-15.1c-7.3-8-12.5-17.9-15-28.5l-0.4,0.1c-31.9,20.6-56.7,50.1-71,85.3l0,0l-0.2-0.1
		c-8-5.4-13.6-13.4-16.8-22.5c-2.9-8.4-3.8-17.7-2.7-26.6c2.6-20.4,15.2-38.5,30.9-51.7c15.7-13.2,34.4-22.3,53-30.9l-0.1-0.1
		c5.5-35.2,30.6-66.6,63.7-79.7l0-0.1c-18.7-9.2-32.9-27.3-37.3-47.7c-4.4-20.4,1-42.7,14.2-58.9c7.8-9.5,20.2-17.3,32-13.8
		c8.4,2.5,14.3,10.2,17.5,18.3c3.2,8.1,4.2,17,6.3,25.5c6.1,25.4,21.8,48.3,43.1,63.2c12.3,8.6,26.3,14.5,38.1,23.7
		c9.5,7.4,17.8,17.7,20.1,29.2l0.4-0.1c11.8-0.2,22.3,6.8,29,16.8c2.5,3.7,4.5,7.9,5.8,12.3c4.9,16.1,2.2,34.3-3.5,50.8
		c-3.1,8.9-7.1,17.6-13.1,24.6c-0.4,0.5-0.8,0.9-1.2,1.3c-6.7,7.3-16,12.3-25.1,11.7c-6.3-0.4-12.3-3.8-15.8-9l-0.7,0.5
		c-5.3,5.4-11,10.3-17.1,14.7c-19.3,13.9-42.4,22.4-66.1,24.3l0,0c-7.7,25.8-20.7,50.1-38,70.8
		C158.1,1024.7,147.1,1035.2,133.2,1039.1z"/>
	
		<pattern  id="SVGID_00000154412754881570627960000014742363125579540661_" xlink:href="#New_Pattern_Swatch_5" patternTransform="matrix(1.3402 -0.1233 0.1233 1.3402 2962.76 904.2372)">
	</pattern>
	<path style="fill:url(#SVGID_00000154412754881570627960000014742363125579540661_);" d="M50.7,967.2c14.2-35.2,39.1-64.6,71-85.3
		l0.4-0.1c2.5,10.6,7.7,20.5,15,28.5c5.8,6.4,13,11.5,20.9,15.1c-25.3,14.4-46.2,36.6-58.8,62.9c-3.6,7.6-6.5,16.1-6.5,24.4l-0.7,0
		c-5.1,1.6-10.3,2.8-15.6,3c-10.7,0.4-22.2-3.7-27.6-13c-6.1-10.4-2.9-23.6,1.6-34.8C50.5,967.8,50.6,967.5,50.7,967.2L50.7,967.2z"
		/>
	<path class="st55" d="M1094.4,772.9c0.1-1.3,0.2-2.6,0.2-4"/>
	<path class="st55" d="M1092.6,788.1c0.2-1.2,0.4-2.5,0.6-3.7"/>
	<path class="st55" d="M1089.2,803.7c0.4-1.6,0.9-3.2,1.3-4.8"/>
	<path class="st55" d="M1068.9,670.6c-0.4-0.6-0.9-1.2-1.3-1.8c-0.4-0.6-0.9-1.2-1.3-1.7c-0.4-0.6-0.9-1.1-1.3-1.7
		c-0.4-0.5-0.9-1.1-1.4-1.6c-0.9-1.1-1.8-2.1-2.8-3c-2.3-2.5-4.7-4.7-7.2-6.6c-9.5-7.6-20.1-11.4-30.8-10.5
		c-33.9,3.1-56.9,53.2-51.5,111.9c5.3,57.4,35.9,101.8,68.9,100.7"/>
	<path class="st55" d="M1070.8,673.2c-0.3-0.5-0.6-0.9-0.9-1.3"/>
	<path class="st55" d="M1077.5,684.9c-0.5-1-1.1-2.1-1.6-3.1"/>
	<path class="st55" d="M1082,694.5c-0.5-1.1-0.9-2.2-1.4-3.3"/>
	<path class="st55" d="M1084.5,701.1c-0.4-1-0.8-2.1-1.2-3.1"/>
	<path class="st55" d="M1085.9,705c-0.4-1.2-0.8-2.4-1.2-3.6"/>
	<path class="st55" d="M1088.8,805.3c0.2-0.5,0.3-1.1,0.4-1.6c0.4-1.6,0.9-3.2,1.3-4.8c0.3-1.1,0.5-2.2,0.8-3.3c0-0.1,0-0.2,0-0.2
		c0.3-1.2,0.5-2.4,0.7-3.6c0.2-1.2,0.4-2.4,0.6-3.7c0.2-1.2,0.4-2.5,0.6-3.7c0.1-1.1,0.3-2.1,0.4-3.2c0-0.4,0.1-0.8,0.1-1.1
		c0.1-0.9,0.2-1.8,0.3-2.8c0-0.4,0.1-0.8,0.1-1.1c0.1-1.1,0.2-2.2,0.3-3.3c0.1-1.3,0.2-2.6,0.2-4c0-1,0.1-2,0.1-3.1
		c0-0.4,0-0.9,0-1.3c0-1.1,0-2.2,0-3.3c0-1.2,0-2.5,0-3.7c0-0.5,0-1.1,0-1.6c0-1.1-0.1-2.1-0.1-3.2c0-1-0.1-1.9-0.2-2.9
		c0-0.1,0-0.3,0-0.5c0-0.5-0.1-0.9-0.1-1.4c-0.1-1.2-0.2-2.4-0.3-3.6c-0.1-1.2-0.2-2.4-0.4-3.6c0-0.5-0.1-0.9-0.2-1.4
		c0-0.2,0-0.3-0.1-0.5c-0.1-1-0.2-1.9-0.4-2.9c-0.1-1.1-0.3-2.1-0.5-3.1c-0.1-0.5-0.2-1.1-0.3-1.6c-0.2-1.3-0.4-2.6-0.7-3.8
		c-0.2-1-0.4-2-0.6-3c-0.3-1.5-0.6-3-1-4.6c-0.3-1.2-0.6-2.4-0.9-3.7c-0.3-1.1-0.5-2.1-0.8-3.2c-0.1-0.4-0.2-0.8-0.3-1.1
		c-0.2-0.9-0.5-1.7-0.8-2.6c-0.1-0.4-0.2-0.8-0.3-1.1c-0.3-1-0.7-2.1-1-3.1c-0.4-1.2-0.8-2.4-1.2-3.6c0-0.1-0.1-0.2-0.1-0.4
		c-0.4-1-0.8-2.1-1.2-3.1c-0.4-1.1-0.9-2.3-1.4-3.4c-0.5-1.1-0.9-2.2-1.4-3.3c-1-2.2-2-4.3-3-6.4c-0.5-1-1.1-2.1-1.6-3.1
		c-0.8-1.5-1.7-3-2.5-4.4c-0.9-1.4-1.7-2.8-2.6-4.2c-0.3-0.5-0.6-0.9-0.9-1.3c-0.3-0.4-0.6-0.9-0.9-1.3c-0.4-0.6-0.9-1.2-1.3-1.8
		c-0.4-0.6-0.9-1.2-1.3-1.7c-0.4-0.6-0.9-1.1-1.3-1.7c-0.4-0.5-0.9-1.1-1.4-1.6c-0.9-1.1-1.8-2.1-2.8-3c-2.3-2.5-4.8-4.7-7.2-6.6
		c-2.5-2-5-3.7-7.6-5.1c-11.6,9.6-20.6,25.9-25.8,45.9l34.4,48.3l-38.9,0.4c0.1,2.6,0.3,5.1,0.6,7.7c3.2,35.2,16,65.5,33,83.4"/>
	<path class="st55" d="M902,799.6c0.2-1,0.4-2,0.5-3.1"/>
	<path class="st55" d="M893.4,827.9c0.2-0.5,0.4-1,0.6-1.5"/>
	<path class="st55" d="M888.2,837.9c0.9-1.5,1.8-3,2.6-4.6"/>
	<path class="st55" d="M883.8,844.5c0.7-0.9,1.4-1.9,2-2.8"/>
	<path class="st55" d="M878.3,850.9c1.9-1.9,3.7-4.1,5.5-6.4"/>
	<path class="st55" d="M872.8,671c-0.9-1-1.7-1.9-2.7-2.9c-0.4-0.5-0.9-0.9-1.4-1.4c-0.4-0.4-0.9-0.9-1.4-1.3
		c-10.5-9.8-22.4-14.9-34.6-13.8c-33.9,3.1-56.9,53.2-51.5,111.9c3.1,34,15.1,63.3,31.2,81.5"/>
	<path class="st55" d="M880.7,681.2c-0.6-0.9-1.2-1.8-1.8-2.7"/>
	<path class="st55" d="M894.5,709.1c-0.4-1-0.7-2-1.1-2.9"/>
	<path class="st55" d="M900,727.8c-0.2-1-0.5-2-0.7-2.9"/>
	<path class="st55" d="M878.3,850.8c1.9-1.9,3.7-4.1,5.5-6.4c0,0,0,0,0,0c0.7-0.9,1.4-1.9,2-2.8c0.3-0.5,0.7-1,1-1.5
		c0.5-0.7,0.9-1.4,1.4-2.2c0.9-1.5,1.8-3,2.6-4.6c0.4-0.8,0.8-1.6,1.2-2.4c0.2-0.5,0.5-1.1,0.8-1.6c0.2-0.5,0.4-1,0.7-1.5
		c0.2-0.5,0.4-1,0.6-1.5c0.6-1.5,1.2-3,1.8-4.6c0.2-0.4,0.3-0.9,0.5-1.4c0.8-2.2,1.5-4.5,2.2-6.8c0.3-1.1,0.6-2.1,0.9-3.2
		c0,0,0-0.1,0-0.1c0.3-1.1,0.6-2.2,0.9-3.4c0-0.1,0-0.1,0-0.2c0.3-1.1,0.5-2.1,0.7-3.2c0-0.1,0-0.2,0-0.2c0.2-1.1,0.5-2.2,0.7-3.4
		c0-0.1,0.1-0.3,0.1-0.4c0.2-1,0.4-2,0.5-3.1c0.2-1.4,0.4-2.8,0.6-4.3c0.1-1,0.3-2,0.4-3.1c0-0.4,0.1-0.7,0.1-1.1
		c0.1-1,0.2-1.9,0.3-2.9c0.1-1.2,0.2-2.5,0.3-3.7c0-0.4,0.1-0.9,0.1-1.4c0.1-1,0.1-2,0.2-3c0.1-1.5,0.1-3.1,0.2-4.7c0-1,0-2.1,0-3.1
		c0-1.3,0-2.6,0-3.9c0-0.5,0-1.1,0-1.6c0-1.1-0.1-2.1-0.1-3.2c0-1-0.1-1.9-0.2-2.9c0-0.1,0-0.3,0-0.5c0-0.5-0.1-0.9-0.1-1.4
		c-0.1-1.2-0.2-2.4-0.3-3.6c-0.1-1.2-0.2-2.4-0.4-3.6c0-0.5-0.1-0.9-0.2-1.4c0-0.2,0-0.3-0.1-0.5c-0.1-1-0.2-1.9-0.4-2.9
		c-0.1-1.1-0.3-2.1-0.5-3.1c-0.1-0.5-0.2-1.1-0.3-1.6c-0.2-1.3-0.4-2.6-0.7-3.8c-0.2-1-0.4-2-0.6-3c-0.3-1.5-0.6-3-1-4.6
		c-0.2-1-0.5-2-0.7-2.9c-0.1-0.4-0.2-0.9-0.3-1.3c-0.3-1.2-0.6-2.4-1-3.6c-0.2-0.9-0.5-1.8-0.8-2.8c-0.1-0.4-0.2-0.7-0.3-1.1
		c-0.3-1-0.6-2-0.9-3c-0.5-1.4-0.9-2.7-1.4-4.1c-0.4-1-0.7-2-1.1-2.9c-0.1-0.1-0.1-0.3-0.2-0.4c-0.4-1.1-0.8-2.1-1.3-3.2
		c0-0.1-0.1-0.2-0.1-0.2c-0.4-1-0.9-2-1.3-3c0-0.1-0.1-0.1-0.1-0.2c-0.5-1.1-1-2.1-1.5-3.2c0,0,0-0.1,0-0.1c-0.5-1-1-2-1.5-3
		c-1.1-2.2-2.2-4.2-3.4-6.3c-0.2-0.4-0.5-0.8-0.8-1.3c-0.9-1.4-1.7-2.8-2.6-4.2c-0.6-0.9-1.2-1.8-1.8-2.7c-0.3-0.4-0.6-0.9-0.9-1.3
		c-1.6-2.2-3.3-4.3-5.1-6.3c-0.9-1-1.8-1.9-2.7-2.9c-0.4-0.5-0.9-0.9-1.4-1.4c-0.4-0.4-0.9-0.9-1.4-1.3c-3.7-3.4-7.5-6.2-11.5-8.4
		c-11.6,9.6-20.6,25.8-25.8,45.9l34.4,48.3l-38.9,0.4c0.1,2.6,0.3,5.2,0.5,7.8c3.4,36.7,17.1,68.1,35.2,85.7"/>
	<path class="st55" d="M1088.8,588.8c-4,0.5-8.8-1.2-12.7-2.7c-13.5-4.8-29.7-7.4-45.4-9.5c-6.4-0.8-12.9-1.6-18.8-3.2
		c-5.9-1.6-11.3-4.2-12.4-6.9c-0.9-2.3,1.4-4.3,4.7-5.7c7.4-3.1,19.2-3.5,30.8-1.7c4.8,0.7,9.6,1.8,14,3.1
		c16.5,4.8,31.9,12.6,40.6,20.1c1.4,1.2,2.7,2.5,2.9,3.7C1092.5,587.3,1091.3,588.5,1088.8,588.8z"/>
	<path class="st55" d="M847.1,571.1c0.5-2.4-2.2-4-5.7-4.8c-7.8-1.7-19.5,0.1-30.6,3.9c-4.6,1.6-9.1,3.5-13.2,5.6
		c-15.3,7.7-29.1,18.2-36.2,27.1c-1.2,1.4-2.2,2.9-2.1,4.2c0.1,1.3,1.5,2.2,4.1,2c4.1-0.2,8.4-2.8,12-4.9
		c12.4-7.2,27.8-12.7,42.9-17.6c6.1-2,12.4-3.9,17.9-6.6C841.8,577.5,846.6,574,847.1,571.1z"/>
	<path class="st55" d="M1202.8,328.4c-5.4-7.1-11-14.1-16.6-20.9c-19.6-23.7-42-45.7-66.6-63.9"/>
	<path class="st55" d="M1379.1,1010c4.4-59.4,4.3-120.7-0.6-182.1c-3.2-39.7-8.3-79.4-15.6-118.8c-15.6-84.2-40.8-166.5-76.6-242.2
		c-3.5-7.4-7.1-14.8-10.8-22.1"/>
	<path class="st55" d="M633.6,501.6c-3.2,7.5-6.3,15-9.5,22.4C595,593.9,568.6,664.9,545,736.8c-9.2,28.1-18,56.3-26.4,84.7
		c-5.7,19.2-11.1,38.4-16.2,57.8c-19.8,75.4-34.1,152.3-32.5,230.1c2.1,97.7,31.5,197.7,97.7,269.7c41.3,44.9,94.3,76.1,152.1,96
		c38.9,13.4,80,21.8,121.2,25.7c10.1,1,20.3,1.7,30.4,2.1c41.2,1.8,83.1-0.5,124-7.5c32.7-5.5,64.8-14,95.5-25.6
		c47.8-18.1,92.2-43.8,130.4-78c53.4-47.9,91.6-109.8,116.9-177.2"/>
	<path class="st55" d="M940.2,193.7C837,207.4,746.7,284.8,694,373.2"/>
	<path class="st19" d="M912.9,235.3c12.3-0.1,24.7,1.4,36.6,4.4c5.2,1.3,10.3,2.9,15.4,4.8c1,0.4,2,0.7,3,1.1
		c18.5,7.3,35.7,18.2,49.8,32.2"/>
	<path class="st19" d="M911.4,264.3c17-9.5,36.3-15.8,56.5-18.7c17.5-2.5,35.7-2.5,53.7,0.3"/>
	<path class="st19" d="M1019.7,59.6c-0.6,1.9-2.4,3.3-5.1,4c-4.9,1.5-12.6,1-20.8-1.6c-12.6-4-21.4-11.6-19.7-16.9
		c1.7-5.4,13.3-6.5,25.8-2.5C1012.7,46.7,1021.5,54.3,1019.7,59.6z"/>
	<path class="st19" d="M949.6,239.7c0,0-6.3-18.3-9.3-46.1c-4.2-39-1.9-96.8,34-148.5"/>
	<path class="st19" d="M968.3,239.4c0,0.6,0.1,1.1,0.1,1.6"/>
	<path class="st19" d="M1019.7,59.6c0,0-1.9,1.2-5.1,4c-14.7,13.1-55.5,60-46.7,171.6"/>
	<path class="st19" d="M965.4,243.3c1.2-1.8,2-4.7,2.5-7.9c1-6.1,1.2-13.4,2-17.4c4.5-20.6,10.7-40.9,18.6-60.5
		c20.3-50.2,53-96.5,105.1-116.7c26.5-10.3,55.7-13.6,83.8-8.8c23.6,4.1,45.8,13.4,69.1,19.1c23.2,5.7,70.2-3,70.2-3
		s-2.3,15.8-2.9,18.5c-3.4,15.4-8,30.6-13.6,45.3c-15.6,40.9-40.2,80-77.1,104.8c-29.9,20.1-67.2,28.9-103.5,26.9
		c-14.9-0.8-29.6-3.4-43.6-7.8c-16.5-5.2-32.3-12.8-49.2-16.1c-22.5-4.3-44.3,2-58.5,19.7C967.3,240.6,966.3,241.9,965.4,243.3z"/>
	<path class="st55" d="M812.5,845c-35.2,7.7-60.3,31.1-58,56.2c2.6,28.3,39.1,48.1,81.6,44.2c42.4-3.9,74.7-30,72.1-58.4
		c-1.4-15.4-12.8-28.3-29.8-36.2l0,0c-5.2-2.4-10.8-4.3-16.9-5.8c-10.7-2.5-22.5-3.4-34.9-2.3C821.7,843.3,817,844,812.5,845z"/>
	<path class="st19" d="M1122.4,952.3c-42.5,4-80.2-27.3-84.1-69.8c-0.8-9.1-0.1-17.9,2-26.2c1.9-7.6,5-14.9,9.1-21.4
		c5.2-8.5,12.1-16,20.2-21.9c0,0,7.4-5.4,19.2-7.6l0,0c9.8-1.8,22.5-1.4,36.4,6"/>
	<g>
		<path d="M1082.2,838.3c-4.7,0.4-8.2,4.6-7.8,9.4c0.2,2.3,1.3,4.4,3.1,5.8c1.6,1.3,3.5,2,5.5,2c0.3,0,0.5,0,0.8,0
			c4.7-0.4,8.2-4.6,7.8-9.3C1091.2,841.4,1087,837.9,1082.2,838.3z"/>
		<path d="M1084.8,893.4c-0.4-4.7-4.6-8.2-9.3-7.8c-4.7,0.4-8.2,4.6-7.8,9.3c0.2,2.3,1.3,4.4,3.1,5.9c1.6,1.3,3.5,2,5.4,2
			c0.3,0,0.6,0,0.9,0C1081.8,902.3,1085.3,898.1,1084.8,893.4C1084.8,893.4,1084.8,893.4,1084.8,893.4z"/>
		<path d="M1128.9,909.5C1128.9,909.5,1128.9,909.5,1128.9,909.5c-0.5-4.8-4.7-8.2-9.4-7.8c-2.3,0.2-4.4,1.3-5.8,3.1
			c-1.5,1.8-2.2,4-2,6.3c0.2,2.3,1.3,4.4,3.1,5.8c1.6,1.3,3.5,2,5.5,2c0.3,0,0.5,0,0.8,0C1125.9,918.4,1129.3,914.2,1128.9,909.5z"
			/>
	</g>
	<path class="st19" d="M925.6,1059.9c-12.5,3.3-25.5,5.6-38.9,6.8c-10.8,1-22,1.4-33.4,1c-19.8-0.6-38.8-3.6-56.9-8.8"/>
	<path class="st19" d="M1049.7,922.3c-21.7,45.2-78.5,122-195.6,118.5c-117.1-3.5-168.5-96.4-182.6-144.5"/>
	<path class="st19" d="M651.5,928.1c3.8-23.1,22.2-43.1,44.9-48.9"/>
	<path class="st19" d="M1516.2,1162.9c10.8-9.1,19.5-20.5,25.7-33.2c5.4-11.1,8.8-23.2,9.8-35.5c0.1-1.8,0.2-3.6,0.3-5.4
		c0.4-15.9-3.2-31.9-10.1-46.3c-5.3-11.1-12.7-21.3-21.7-29.7"/>
	<path class="st19" d="M1536.1,1178c5.4-15.4,7.4-32.1,5.8-48.4"/>
	<path class="st19" d="M1553,1094.3c8-2.5,17,0.1,23.5,5.4c6.5,5.2,10.9,12.8,13.8,20.6c9.5,25.6,4.2,56.1-13.5,76.9
		c-17.6,20.9-46.8,31.2-73.6,26.1c-0.9-0.2-1.8-0.4-2.8-0.6c-25.6-5.9-47.7-25.7-56.2-50.7"/>
	<path class="st19" d="M1500.4,1222.8c-5.6,18.1-21.8,32.5-40.4,35.8c-18,3.2-37.5-4-49.2-18.1c-0.4-0.5-0.7-0.9-1.1-1.4
		c-11.3-14.8-13.8-34.2-15.9-52.7"/>
	<path class="st19" d="M1410.2,1240.9c-14.6,7.2-32.7,5.1-46.9-2.9c-10.1-5.7-18.4-14-25.2-23.4c-2.8-3.8-5.3-7.8-7.6-12
		c-26.4-47.3-23.1-109.6,8.1-153.8c10.9-15.4,24.9-28.3,40.8-38.3c16.2-10.1,34.3-17.1,53.1-20.5c15.9-2.9,32.2-3.1,48.2-0.5"/>
	<path class="st19" d="M1432.5,989.6c-5-10.8-0.8-24.5,8.1-32.4c8.9-8,21.5-10.8,33.4-10c1.2,0.1,2.4,0.2,3.6,0.3
		c10.6,1.2,20.8,4.9,30.8,8.8c13.4,5.3,26.7,11.3,37.4,21c5,4.6,9.3,10.1,12.4,16.1c3.4,6.8,5.2,14.2,4.6,21.8
		c-1,12.1-9.6,23.7-20.9,27.2"/>
	<path class="st19" d="M1477.8,946.1c14-18.2,17.5-44.5,7.5-65.4c-8.5-17.9-25.3-30.9-43.5-38.8c-18.2-7.9-43.7-10.8-63.3-14.2"/>
	<path class="st19" d="M1558.1,993.5L1558.1,993.5c11.1-17.9,21.4-36.2,28.5-56c9.7-27,12.9-57.2,3.3-84.2
		c-12.4-34.7-43.7-58.9-75.4-77.9c-40.1-24-105.5-53.5-150.4-66.6"/>
	<path class="st19" d="M214.9,837.7c7.2-16.3,23-28.4,40.6-31.1c17.6-2.6,36.3,4.3,47.9,17.8"/>
	<path class="st19" d="M200.4,943.2c1.7-0.1,3.3-0.2,4.9-0.3c23.7-1.9,46.8-10.4,66.1-24.3c6.1-4.4,11.9-9.3,17.1-14.7"/>
	<path class="st19" d="M286.2,895.1c0.4,3.1,1.5,5.9,3.1,8.3c3.5,5.2,9.5,8.6,15.8,9c9.2,0.6,18.5-4.5,25.1-11.7
		c0.4-0.4,0.8-0.9,1.2-1.3c6-7,10.1-15.8,13.1-24.6c5.7-16.5,8.4-34.7,3.5-50.8c-1.3-4.4-3.3-8.5-5.8-12.3c-6.7-10-17.2-17-29-16.8"
		/>
	<path class="st19" d="M313.3,803.5c0.2-2.9,0-5.8-0.6-8.6c-2.3-11.5-10.6-21.8-20.1-29.2c-11.8-9.1-25.8-15.1-38.1-23.7
		c-21.4-14.9-37-37.9-43.1-63.2c-2.1-8.5-3.1-17.3-6.3-25.5c-3.2-8.2-9.1-15.8-17.5-18.3c-11.8-3.5-24.2,4.3-32,13.8
		c-13.2,16.1-18.6,38.4-14.2,58.9c4.4,20.4,18.6,38.5,37.3,47.7"/>
	<path class="st19" d="M178.8,755.4C178.7,755.4,178.7,755.5,178.8,755.4c-33.2,13.2-58.3,44.6-63.8,79.8"/>
	<path class="st19" d="M115.1,835.3c0,0-0.1,0-0.1,0.1C96.4,844,77.7,853,62,866.2c-15.7,13.2-28.4,31.3-30.9,51.7
		c-1.1,9-0.3,18.3,2.7,26.6c3.2,9.1,8.8,17.1,16.8,22.5"/>
	<path class="st19" d="M121.7,881.9c-31.9,20.6-56.7,50.1-71,85.3l0,0c-0.1,0.3-0.2,0.6-0.3,0.8c-4.5,11.2-7.7,24.4-1.6,34.8
		c5.4,9.2,17,13.4,27.6,13c5.3-0.2,10.5-1.4,15.6-3"/>
	<path class="st19" d="M120.4,867.4c0,4.9,0.6,9.7,1.7,14.5c2.5,10.6,7.7,20.5,15,28.5c5.8,6.4,13,11.5,20.9,15.1
		c6.4,2.9,13.3,4.8,20.4,5.4"/>
	<path class="st19" d="M158.1,925.5c-25.3,14.4-46.2,36.6-58.8,62.9c-3.6,7.6-6.5,16.1-6.5,24.4c0,4.5,0.9,8.9,3,12.9
		c6.6,12.8,23.7,17.3,37.5,13.4c13.8-3.9,24.9-14.3,34.1-25.4c17.3-20.7,30.3-44.9,38-70.8"/>
	<path class="st19" d="M342.1,811.6c74.2,8.4,152.1-19.9,202.8-74.8c0.1-0.1,0.1-0.1,0.2-0.2"/>
	<path class="st19" d="M331.2,899.3c0.1,0,0.1,0,0.2,0c57.1,12.3,118.3,5.1,171-20"/>
	<path class="st19" d="M1312.2,450.8c-3.3-16.6-8-31.6-13.3-44.9c-6.3-15.9-13.4-29.2-19.9-39.8c-11.8-19.1-21.7-29.3-21.7-29.3
		c-0.5-4.9-21-7.6-54.5-8.4c-61.8-1.5-167.7,3.5-272.7,12.8c-94.4,9-180.8,20.8-236.1,31.9c-39.4,7.9-63,15.4-62.5,21.3
		c0,0-7.6,11.3-15.5,31.5l0,0c-4.2,10.8-8.6,24.1-11.9,39.6c-3.2,14.9-5.4,31.9-5.8,50.4c0,0.1,0,0.3,0,0.4"/>
	<path class="st19" d="M1288.6,465.7c17.8-4.8,24.2-8.9,23.8-12.5c-0.1-0.7-0.5-1.3-1.2-2c-3.8-3.1-16.2-5.2-35.7-6.5
		c-58.7-3.7-181.3,1-322.4,13.5c-140.9,12.5-262.2,29.4-319.4,43.3c-22.1,5.4-34.7,10.4-35.2,14.5c0,0.2,0,0.3,0,0.4
		c0.3,3.4,9.4,5.9,25.7,7.6"/>
	<path class="st19" d="M1195.5,652.5c21.1-1.9,36.6-20.6,34.7-41.7c-2.7-29.3-44.8-68.2-44.8-68.2s-34.3,45.9-31.6,75.2
		C1155.7,638.9,1174.4,654.5,1195.5,652.5z"/>
	<path class="st19" d="M1252.1,556.5c12.3-1.1,21.4-12.1,20.3-24.4c-1.6-17.1-26.2-39.9-26.2-39.9s-20,26.8-18.5,44
		C1228.8,548.6,1239.8,557.7,1252.1,556.5z"/>
	<path class="st19" d="M968.3,239.4c0,0,70-132.7,182.4-102.6"/>
</g>
</svg>
